<svg width="38" height="38" viewBox="0 0 38 38" fill="none" xmlns="http://www.w3.org/2000/svg">
<path d="M25.7906 14.928C24.9008 13.4418 23.5481 12.2886 21.9398 11.6452C20.3316 11.0018 18.5567 10.9037 16.8874 11.3659C15.2181 11.8282 13.7464 12.8253 12.6983 14.2043C11.6501 15.5834 11.0832 17.2682 11.0846 19.0003C11.0832 20.7325 11.6501 22.4173 12.6983 23.7963C13.7464 25.1753 15.2181 26.1725 16.8874 26.6347C18.5567 27.097 20.3316 26.9989 21.9398 26.3555C23.5481 25.712 24.9008 24.5588 25.7906 23.0727L23.0752 21.445C22.6479 22.1569 22.0414 22.7443 21.3162 23.1488C20.5911 23.5532 19.7726 23.7605 18.9423 23.7499C18.1121 23.7394 17.2991 23.5114 16.5844 23.0887C15.8698 22.666 15.2784 22.0633 14.8693 21.3408C14.4601 20.6183 14.2476 19.8011 14.2527 18.9708C14.2579 18.1405 14.4806 17.3261 14.8986 16.6087C15.3167 15.8913 15.9155 15.296 16.6354 14.8822C17.3552 14.4684 18.171 14.2506 19.0013 14.2503C20.7319 14.2503 22.2471 15.175 23.0752 16.5572L25.7906 14.928ZM34.8346 19.0003C34.8346 10.2603 27.7413 3.16699 19.0013 3.16699C10.2613 3.16699 3.16797 10.2603 3.16797 19.0003C3.16797 27.7403 10.2613 34.8337 19.0013 34.8337C27.7413 34.8337 34.8346 27.7403 34.8346 19.0003ZM6.33464 19.0003C6.33464 12.002 12.003 6.33366 19.0013 6.33366C25.9996 6.33366 31.668 12.002 31.668 19.0003C31.668 25.9987 25.9996 31.667 19.0013 31.667C12.003 31.667 6.33464 25.9987 6.33464 19.0003Z" fill="#FDC182"/>
</svg>
