<svg width="1727" height="115" viewBox="0 0 1727 115" fill="none" xmlns="http://www.w3.org/2000/svg">
<g clip-path="url(#clip0_441_1937)">
<mask id="mask0_441_1937" style="mask-type:luminance" maskUnits="userSpaceOnUse" x="-4" y="-238" width="1731" height="1041">
<path d="M-4 802.275L1727 802.275L1727 -238L-4.00003 -238L-4 802.275Z" fill="white"/>
</mask>
<g mask="url(#mask0_441_1937)">
<path d="M1346.82 282.139L1727 282.139L1727 114.866L1346.82 114.866L1346.82 282.139Z" fill="#F8F8F7"/>
<path d="M1346.82 114.865L1727 114.865L1727 -238L1346.82 -238L1346.82 114.865Z" fill="#C50A14"/>
<path d="M-4.00061 802.275L682.303 802.275L682.303 114.865L-4.00063 114.865L-4.00061 802.275Z" fill="#C50A14"/>
<path d="M339.148 -50.3308C248.06 -50.3308 174.219 23.6298 174.219 114.865C174.219 206.1 248.06 280.061 339.148 280.061C430.237 280.061 504.078 206.1 504.078 114.865C504.078 23.6298 430.237 -50.3308 339.148 -50.3308Z" fill="#F8F8F7"/>
<path d="M1037.45 449.411L1346.82 449.411L1346.82 114.866L1037.45 114.866L1037.45 449.411Z" fill="#232427"/>
<path d="M943.968 114.865L1346.82 114.865L1346.82 -238L943.968 -238L943.968 114.865Z" fill="#C50A14"/>
<path d="M1347 114.865L1296.45 114.865C1102.01 114.865 944.151 -43.2496 944.151 -238L1347 -238L1347 114.865Z" fill="#232427"/>
<path d="M-3.99994 114.865L943.965 114.865L943.965 -238L-3.99995 -238L-3.99994 114.865Z" fill="#FDC182"/>
<path d="M339.15 114.865L548.535 114.865L548.535 -61.5689L339.15 -61.5689L339.15 114.865Z" fill="#C50A14"/>
<path d="M143.332 449.411L-4.00024 449.411L-4.00025 114.869L143.332 114.869C235.504 114.869 310.332 189.821 310.332 282.138C310.332 374.459 235.501 449.411 143.332 449.411Z" fill="#232427"/>
<path d="M504.083 449.411L1214.01 449.411L1214.01 114.869L504.083 114.869L504.083 449.411Z" fill="#F8F8F7"/>
<path d="M1214.01 114.865L1346.82 114.865L1346.82 280.064C1273.47 280.064 1214.01 206.104 1214.01 114.865Z" fill="#FDC182"/>
</g>
</g>
<defs>
<clipPath id="clip0_441_1937">
<rect width="1731" height="353" fill="white" transform="translate(1727 115) rotate(180)"/>
</clipPath>
</defs>
</svg>
