<svg width="26" height="41" viewBox="0 0 26 41" fill="none" xmlns="http://www.w3.org/2000/svg">
<path d="M0.95752 5.6665C0.95752 4.34042 1.4843 3.06865 2.42199 2.13097C3.35967 1.19329 4.63144 0.666504 5.95752 0.666504L20.9575 0.666504C22.2836 0.666504 23.5554 1.19329 24.4931 2.13097C25.4307 3.06865 25.9575 4.34042 25.9575 5.6665V35.6665C25.9575 36.9926 25.4307 38.2644 24.4931 39.202C23.5554 40.1397 22.2836 40.6665 20.9575 40.6665H5.95752C4.63144 40.6665 3.35967 40.1397 2.42199 39.202C1.4843 38.2644 0.95752 36.9926 0.95752 35.6665V5.6665ZM15.9575 33.1665C15.9575 32.5035 15.6941 31.8676 15.2253 31.3987C14.7564 30.9299 14.1206 30.6665 13.4575 30.6665C12.7945 30.6665 12.1586 30.9299 11.6898 31.3987C11.2209 31.8676 10.9575 32.5035 10.9575 33.1665C10.9575 33.8295 11.2209 34.4654 11.6898 34.9343C12.1586 35.4031 12.7945 35.6665 13.4575 35.6665C14.1206 35.6665 14.7564 35.4031 15.2253 34.9343C15.6941 34.4654 15.9575 33.8295 15.9575 33.1665Z" fill="#FDC182"/>
</svg>
