<svg width="42" height="30" viewBox="0 0 42 30" fill="none" xmlns="http://www.w3.org/2000/svg">
<path d="M16.8327 21.2503L27.6452 15.0003L16.8327 8.75033V21.2503ZM40.916 4.93783C41.1868 5.91699 41.3743 7.22949 41.4993 8.89616C41.6452 10.5628 41.7077 12.0003 41.7077 13.2503L41.8327 15.0003C41.8327 19.5628 41.4993 22.917 40.916 25.0628C40.3952 26.9378 39.1868 28.1462 37.3118 28.667C36.3327 28.9378 34.541 29.1253 31.791 29.2503C29.0827 29.3962 26.6035 29.4587 24.3118 29.4587L20.9993 29.5837C12.2702 29.5837 6.83268 29.2503 4.68685 28.667C2.81185 28.1462 1.60352 26.9378 1.08268 25.0628C0.811849 24.0837 0.624349 22.7712 0.499349 21.1045C0.353516 19.4378 0.291015 18.0003 0.291015 16.7503L0.166016 15.0003C0.166016 10.4378 0.499349 7.08366 1.08268 4.93783C1.60352 3.06283 2.81185 1.85449 4.68685 1.33366C5.66602 1.06283 7.45768 0.875325 10.2077 0.750325C12.916 0.604492 15.3952 0.541992 17.6868 0.541992L20.9993 0.416992C29.7285 0.416992 35.166 0.750326 37.3118 1.33366C39.1868 1.85449 40.3952 3.06283 40.916 4.93783Z" fill="#FDC182"/>
</svg>
