<svg width="42" height="46" viewBox="0 0 42 46" fill="none" xmlns="http://www.w3.org/2000/svg">
<path d="M21 43.8337C22.1051 43.8337 23.1649 43.3947 23.9463 42.6133C24.7277 41.8319 25.1667 40.7721 25.1667 39.667C25.1667 38.5619 24.7277 37.5021 23.9463 36.7207C23.1649 35.9393 22.1051 35.5003 21 35.5003C19.8949 35.5003 18.8351 35.9393 18.0537 36.7207C17.2723 37.5021 16.8333 38.5619 16.8333 39.667C16.8333 40.7721 17.2723 41.8319 18.0537 42.6133C18.8351 43.3947 19.8949 43.8337 21 43.8337ZM21 10.5003C22.1051 10.5003 23.1649 10.0613 23.9463 9.27994C24.7277 8.49854 25.1667 7.43873 25.1667 6.33366C25.1667 5.22859 24.7277 4.16878 23.9463 3.38738C23.1649 2.60598 22.1051 2.16699 21 2.16699C19.8949 2.16699 18.8351 2.60598 18.0537 3.38738C17.2723 4.16878 16.8333 5.22859 16.8333 6.33366C16.8333 7.43873 17.2723 8.49854 18.0537 9.27994C18.8351 10.0613 19.8949 10.5003 21 10.5003ZM21 27.167C22.1051 27.167 23.1649 26.728 23.9463 25.9466C24.7277 25.1652 25.1667 24.1054 25.1667 23.0003C25.1667 21.8953 24.7277 20.8355 23.9463 20.054C23.1649 19.2726 22.1051 18.8337 21 18.8337C19.8949 18.8337 18.8351 19.2726 18.0537 20.054C17.2723 20.8355 16.8333 21.8953 16.8333 23.0003C16.8333 24.1054 17.2723 25.1652 18.0537 25.9466C18.8351 26.728 19.8949 27.167 21 27.167ZM35.5833 18.8337C36.6884 18.8337 37.7482 18.3947 38.5296 17.6133C39.311 16.8319 39.75 15.7721 39.75 14.667C39.75 13.5619 39.311 12.5021 38.5296 11.7207C37.7482 10.9393 36.6884 10.5003 35.5833 10.5003C34.4783 10.5003 33.4185 10.9393 32.6371 11.7207C31.8557 12.5021 31.4167 13.5619 31.4167 14.667C31.4167 15.7721 31.8557 16.8319 32.6371 17.6133C33.4185 18.3947 34.4783 18.8337 35.5833 18.8337ZM35.5833 35.5003C36.6884 35.5003 37.7482 35.0613 38.5296 34.2799C39.311 33.4985 39.75 32.4387 39.75 31.3337C39.75 30.2286 39.311 29.1688 38.5296 28.3874C37.7482 27.606 36.6884 27.167 35.5833 27.167C34.4783 27.167 33.4185 27.606 32.6371 28.3874C31.8557 29.1688 31.4167 30.2286 31.4167 31.3337C31.4167 32.4387 31.8557 33.4985 32.6371 34.2799C33.4185 35.0613 34.4783 35.5003 35.5833 35.5003ZM6.41667 18.8337C7.52174 18.8337 8.58154 18.3947 9.36294 17.6133C10.1443 16.8319 10.5833 15.7721 10.5833 14.667C10.5833 13.5619 10.1443 12.5021 9.36294 11.7207C8.58154 10.9393 7.52174 10.5003 6.41667 10.5003C5.3116 10.5003 4.25179 10.9393 3.47039 11.7207C2.68899 12.5021 2.25 13.5619 2.25 14.667C2.25 15.7721 2.68899 16.8319 3.47039 17.6133C4.25179 18.3947 5.3116 18.8337 6.41667 18.8337ZM6.41667 35.5003C7.52174 35.5003 8.58154 35.0613 9.36294 34.2799C10.1443 33.4985 10.5833 32.4387 10.5833 31.3337C10.5833 30.2286 10.1443 29.1688 9.36294 28.3874C8.58154 27.606 7.52174 27.167 6.41667 27.167C5.3116 27.167 4.25179 27.606 3.47039 28.3874C2.68899 29.1688 2.25 30.2286 2.25 31.3337C2.25 32.4387 2.68899 33.4985 3.47039 34.2799C4.25179 35.0613 5.3116 35.5003 6.41667 35.5003Z" stroke="#AD0000" stroke-width="4.16667" stroke-linecap="round" stroke-linejoin="round"/>
</svg>
