<svg width="38" height="38" viewBox="0 0 38 38" fill="none" xmlns="http://www.w3.org/2000/svg">
<path d="M8.58333 37.75V33.5833H16.9167V27.125C15.2153 26.7431 13.6965 26.0229 12.3604 24.9646C11.0243 23.9062 10.0431 22.5778 9.41667 20.9792C6.8125 20.6667 4.63403 19.5299 2.88125 17.5687C1.12847 15.6076 0.251389 13.3069 0.25 10.6667V8.58333C0.25 7.4375 0.658333 6.45694 1.475 5.64167C2.29167 4.82639 3.27222 4.41806 4.41667 4.41667H8.58333V0.25H29.4167V4.41667H33.5833C34.7292 4.41667 35.7104 4.825 36.5271 5.64167C37.3438 6.45833 37.7514 7.43889 37.75 8.58333V10.6667C37.75 13.3056 36.8729 15.6062 35.1187 17.5687C33.3646 19.5312 31.1861 20.6681 28.5833 20.9792C27.9583 22.5764 26.9778 23.9049 25.6417 24.9646C24.3056 26.0243 22.7861 26.7444 21.0833 27.125V33.5833H29.4167V37.75H8.58333ZM8.58333 16.5V8.58333H4.41667V10.6667C4.41667 11.9861 4.79861 13.1757 5.5625 14.2354C6.32639 15.2951 7.33333 16.05 8.58333 16.5ZM19 23.1667C20.7361 23.1667 22.2118 22.559 23.4271 21.3438C24.6424 20.1285 25.25 18.6528 25.25 16.9167V4.41667H12.75V16.9167C12.75 18.6528 13.3576 20.1285 14.5729 21.3438C15.7882 22.559 17.2639 23.1667 19 23.1667ZM29.4167 16.5C30.6667 16.0486 31.6736 15.2931 32.4375 14.2333C33.2014 13.1736 33.5833 11.9847 33.5833 10.6667V8.58333H29.4167V16.5Z" fill="#AD0000"/>
</svg>
