<svg width="46" height="44" viewBox="0 0 46 44" fill="none" xmlns="http://www.w3.org/2000/svg">
<path d="M14.6673 31.417V27.2503H19.1986C19.025 27.9448 18.9125 28.6392 18.8611 29.3337C18.8097 30.0281 18.818 30.7225 18.8861 31.417H14.6673ZM14.6673 41.8337C11.7854 41.8337 9.32912 40.8177 7.29857 38.7857C5.26801 36.7538 4.25204 34.2975 4.25065 31.417V12.667C3.10482 12.667 2.12426 12.2594 1.30898 11.4441C0.493707 10.6288 0.0853733 9.64755 0.0839844 8.50033V4.33366C0.0839844 3.18783 0.492318 2.20727 1.30898 1.39199C2.12565 0.576714 3.10621 0.168381 4.25065 0.166992H25.084C26.2298 0.166992 27.2111 0.575326 28.0277 1.39199C28.8444 2.20866 29.252 3.18921 29.2506 4.33366V8.50033C29.2506 9.64616 28.843 10.6274 28.0277 11.4441C27.2125 12.2607 26.2312 12.6684 25.084 12.667V18.9691C24.2506 19.4899 23.4868 20.0975 22.7923 20.792C22.0979 21.4864 21.4902 22.2503 20.9694 23.0837H14.6673V18.917H20.9173V12.667H8.41732V31.417C8.41732 33.1531 9.02496 34.6288 10.2402 35.8441C11.4555 37.0594 12.9312 37.667 14.6673 37.667C15.709 37.667 16.6555 37.4413 17.5069 36.9899C18.3583 36.5385 19.0784 35.9135 19.6673 35.1149C19.9451 35.8094 20.2576 36.4691 20.6048 37.0941C20.952 37.7191 21.3687 38.3267 21.8548 38.917C20.9173 39.8198 19.8409 40.5316 18.6256 41.0524C17.4104 41.5732 16.0909 41.8337 14.6673 41.8337ZM4.25065 8.50033H25.084V4.33366H4.25065V8.50033ZM32.3756 35.5837C33.834 35.5837 35.0666 35.0802 36.0736 34.0732C37.0805 33.0663 37.584 31.8337 37.584 30.3753C37.584 28.917 37.0805 27.6844 36.0736 26.6774C35.0666 25.6705 33.834 25.167 32.3756 25.167C30.9173 25.167 29.6847 25.6705 28.6777 26.6774C27.6708 27.6844 27.1673 28.917 27.1673 30.3753C27.1673 31.8337 27.6708 33.0663 28.6777 34.0732C29.6847 35.0802 30.9173 35.5837 32.3756 35.5837ZM43.0006 43.917L37.3756 38.292C36.6118 38.7781 35.8131 39.1427 34.9798 39.3857C34.1465 39.6288 33.2784 39.7503 32.3756 39.7503C29.7715 39.7503 27.5583 38.8392 25.7361 37.017C23.9138 35.1948 23.002 32.9809 23.0006 30.3753C22.9993 27.7698 23.9111 25.5566 25.7361 23.7357C27.5611 21.9149 29.7743 21.0031 32.3756 21.0003C34.977 20.9975 37.1909 21.9094 39.0173 23.7357C40.8437 25.5621 41.7548 27.7753 41.7506 30.3753C41.7506 31.2781 41.6291 32.1462 41.3861 32.9795C41.143 33.8128 40.7784 34.6114 40.2923 35.3753L45.9173 41.0003L43.0006 43.917Z" fill="#AD0000"/>
</svg>
