<svg width="46" height="46" viewBox="0 0 46 46" fill="none" xmlns="http://www.w3.org/2000/svg">
<path d="M23.0006 4.24967C20.5384 4.24967 18.1002 4.73466 15.8253 5.67693C13.5505 6.61921 11.4835 8.00032 9.7424 9.74142C8.0013 11.4825 6.62018 13.5495 5.67791 15.8244C4.73563 18.0992 4.25065 20.5374 4.25065 22.9997C4.25065 25.462 4.73563 27.9001 5.67791 30.175C6.62018 32.4498 8.0013 34.5168 9.7424 36.2579C11.4835 37.999 13.5505 39.3801 15.8253 40.3224C18.1002 41.2647 20.5384 41.7497 23.0006 41.7497C27.9735 41.7497 32.7426 39.7742 36.2589 36.2579C39.7752 32.7416 41.7506 27.9725 41.7506 22.9997C41.7506 18.0269 39.7752 13.2577 36.2589 9.74142C32.7426 6.22511 27.9735 4.24967 23.0006 4.24967ZM0.0839844 22.9997C0.0839844 10.3434 10.3444 0.0830078 23.0006 0.0830078C35.6569 0.0830078 45.9173 10.3434 45.9173 22.9997C45.9173 35.6559 35.6569 45.9163 23.0006 45.9163C10.3444 45.9163 0.0839844 35.6559 0.0839844 22.9997ZM34.1715 16.5018L30.3756 18.6372L34.2506 21.5413L31.7506 24.8747L25.084 19.8747V16.833L32.1277 12.8705L34.1715 16.5018ZM16.7506 14.6663V22.9997H12.584V14.6663H16.7506ZM16.5423 26.4038L17.584 28.2059C18.6715 30.083 20.6881 31.333 23.0006 31.333C25.3131 31.333 27.334 30.0809 28.4173 28.208L29.459 26.4038L33.0652 28.4893L32.0236 30.2934C31.1089 31.8768 29.7935 33.1916 28.2097 34.1055C26.6258 35.0194 24.8293 35.5002 23.0006 35.4997C21.1722 35.4996 19.3759 35.0183 17.7925 34.104C16.209 33.1898 14.894 31.8748 13.9798 30.2913L12.9361 28.4893L16.5423 26.4038Z" fill="#AD0000"/>
</svg>
