<svg width="42" height="34" viewBox="0 0 42 34" fill="none" xmlns="http://www.w3.org/2000/svg">
<path fill-rule="evenodd" clip-rule="evenodd" d="M35.5846 0.333008C37.1788 0.332919 38.7128 0.942019 39.8727 2.03568C41.0326 3.12935 41.7307 4.6249 41.8242 6.21634L41.8346 6.58301V27.4163C41.8347 29.0105 41.2256 30.5445 40.132 31.7044C39.0383 32.8643 37.5428 33.5624 35.9513 33.6559L35.5846 33.6663H6.41797C4.82378 33.6664 3.28981 33.0573 2.12993 31.9637C0.970038 30.87 0.271911 29.3745 0.178386 27.783L0.167969 27.4163V6.58301C0.16788 4.98882 0.77698 3.45485 1.87064 2.29496C2.96431 1.13508 4.45986 0.43695 6.0513 0.343425L6.41797 0.333008H35.5846ZM37.668 12.833H4.33464V27.4163C4.3347 27.9266 4.52204 28.4191 4.86113 28.8004C5.20021 29.1818 5.66745 29.4254 6.17422 29.4851L6.41797 29.4997H35.5846C36.0949 29.4996 36.5874 29.3123 36.9687 28.9732C37.3501 28.6341 37.5937 28.1669 37.6534 27.6601L37.668 27.4163V12.833ZM15.3617 15.883C15.7366 15.5094 16.2397 15.2924 16.7688 15.2763C17.2978 15.2601 17.8132 15.446 18.2102 15.796C18.6072 16.1461 18.8561 16.6342 18.9063 17.1611C18.9565 17.688 18.8042 18.2143 18.4805 18.633L18.3076 18.8309L18.0555 19.083H27.2513C27.7823 19.0836 28.293 19.2869 28.6792 19.6514C29.0653 20.016 29.2976 20.5142 29.3287 21.0442C29.3599 21.5743 29.1874 22.0963 28.8466 22.5035C28.5058 22.9107 28.0223 23.1724 27.4951 23.2351L27.2513 23.2497H18.0555L18.3055 23.5018C18.6831 23.8758 18.9035 24.38 18.9215 24.9112C18.9395 25.4424 18.7538 25.9604 18.4024 26.3592C18.051 26.758 17.5605 27.0074 17.0313 27.0563C16.502 27.1053 15.9741 26.9501 15.5555 26.6226L15.3617 26.4476L11.5513 22.6393C11.1926 22.2805 10.9771 21.8032 10.9453 21.2969C10.9134 20.7906 11.0674 20.2901 11.3784 19.8893L11.5513 19.6934L15.3617 15.883ZM35.5846 4.49967H6.41797C5.86543 4.49967 5.33553 4.71917 4.94483 5.10987C4.55413 5.50057 4.33464 6.03047 4.33464 6.58301V8.66634H37.668V6.58301C37.668 6.03047 37.4485 5.50057 37.0578 5.10987C36.6671 4.71917 36.1372 4.49967 35.5846 4.49967Z" fill="#AD0000"/>
</svg>
