<svg width="47" height="40" viewBox="0 0 47 40" fill="none" xmlns="http://www.w3.org/2000/svg">
<path d="M17.9688 12.9688C17.9688 12.3471 18.2157 11.751 18.6552 11.3115C19.0948 10.8719 19.6909 10.625 20.3125 10.625H32.0312C32.6529 10.625 33.249 10.8719 33.6885 11.3115C34.1281 11.751 34.375 12.3471 34.375 12.9688C34.375 13.5904 34.1281 14.1865 33.6885 14.626C33.249 15.0656 32.6529 15.3125 32.0312 15.3125H20.3125C19.6909 15.3125 19.0948 15.0656 18.6552 14.626C18.2157 14.1865 17.9688 13.5904 17.9688 12.9688ZM20.3125 23.125H32.0312C32.6529 23.125 33.249 22.8781 33.6885 22.4385C34.1281 21.999 34.375 21.4029 34.375 20.7812C34.375 20.1596 34.1281 19.5635 33.6885 19.124C33.249 18.6844 32.6529 18.4375 32.0312 18.4375H20.3125C19.6909 18.4375 19.0948 18.6844 18.6552 19.124C18.2157 19.5635 17.9688 20.1596 17.9688 20.7812C17.9688 21.4029 18.2157 21.999 18.6552 22.4385C19.0948 22.8781 19.6909 23.125 20.3125 23.125ZM46.0938 32.5C46.0938 34.3648 45.353 36.1532 44.0343 37.4718C42.7157 38.7905 40.9273 39.5312 39.0625 39.5312H17.1875C15.3227 39.5312 13.5343 38.7905 12.2157 37.4718C10.897 36.1532 10.1562 34.3648 10.1562 32.5V7.5C10.1562 6.8784 9.90932 6.28226 9.46978 5.84272C9.03024 5.40318 8.4341 5.15625 7.8125 5.15625C7.1909 5.15625 6.59476 5.40318 6.15522 5.84272C5.71568 6.28226 5.46875 6.8784 5.46875 7.5C5.46875 8.22852 6.12305 8.77148 6.12891 8.77734L6.09375 8.75C6.35168 8.92999 6.57075 9.16005 6.7379 9.42649C6.90505 9.69292 7.01686 9.99026 7.06668 10.3008C7.1165 10.6114 7.1033 10.9288 7.02787 11.2341C6.95244 11.5395 6.81632 11.8265 6.62763 12.0781C6.43894 12.3298 6.20153 12.5409 5.92954 12.6988C5.65756 12.8568 5.35656 12.9584 5.04449 12.9975C4.73242 13.0367 4.41565 13.0127 4.11306 12.9269C3.81047 12.8411 3.52825 12.6952 3.2832 12.498C3.02539 12.3086 0.78125 10.5371 0.78125 7.5C0.78125 5.6352 1.52204 3.84677 2.84066 2.52816C4.15927 1.20954 5.9477 0.46875 7.8125 0.46875H34.375C36.2398 0.46875 38.0282 1.20954 39.3468 2.52816C40.6655 3.84677 41.4062 5.6352 41.4062 7.5V27.0312H42.1875C42.6946 27.0312 43.1881 27.1957 43.5938 27.5C43.8496 27.6914 46.0938 29.4629 46.0938 32.5ZM18.0898 28.6328C18.2455 28.1665 18.5439 27.7609 18.9428 27.4735C19.3417 27.1861 19.8209 27.0313 20.3125 27.0312H36.7188V7.5C36.7188 6.8784 36.4718 6.28226 36.0323 5.84272C35.5927 5.40318 34.9966 5.15625 34.375 5.15625H14.4414C14.708 5.90889 14.8441 6.70154 14.8438 7.5V32.5C14.8438 33.1216 15.0907 33.7177 15.5302 34.1573C15.9698 34.5968 16.5659 34.8438 17.1875 34.8438C17.8091 34.8438 18.4052 34.5968 18.8448 34.1573C19.2843 33.7177 19.5312 33.1216 19.5312 32.5C19.5312 31.8008 18.9121 31.2539 18.9062 31.25C18.5127 30.9547 18.222 30.543 18.0755 30.0732C17.9289 29.6035 17.934 29.0995 18.0898 28.6328ZM41.4062 32.5C41.3992 32.2222 41.3154 31.9518 41.1641 31.7188H24.1719C24.2062 31.9777 24.2232 32.2387 24.2227 32.5C24.2234 33.2985 24.0873 34.0912 23.8203 34.8438H39.0625C39.6841 34.8438 40.2802 34.5968 40.7198 34.1573C41.1593 33.7177 41.4062 33.1216 41.4062 32.5Z" fill="#AD0000"/>
</svg>
