<svg width="1728" height="353" viewBox="0 0 1728 353" fill="none" xmlns="http://www.w3.org/2000/svg">
<g clip-path="url(#clip0_345_234)">
<mask id="mask0_345_234" style="mask-type:luminance" maskUnits="userSpaceOnUse" x="-2" y="-688" width="1731" height="1041">
<path d="M1729 -687.275H-2V353H1729V-687.275Z" fill="white"/>
</mask>
<g mask="url(#mask0_345_234)">
<path d="M378.183 -167.138H-2V0.135025H378.183V-167.138Z" fill="#F8F8F7"/>
<path d="M378.183 0.135742H-2V353.001H378.183V0.135742Z" fill="#C50A14"/>
<path d="M1729 -687.275H1042.7V0.135223H1729V-687.275Z" fill="#C50A14"/>
<path d="M1385.85 165.331C1476.94 165.331 1550.78 91.3703 1550.78 0.135269C1550.78 -91.0998 1476.94 -165.06 1385.85 -165.06C1294.76 -165.06 1220.92 -91.0998 1220.92 0.135269C1220.92 91.3703 1294.76 165.331 1385.85 165.331Z" fill="#F8F8F7"/>
<path d="M687.551 -334.41H378.184V0.135345H687.551V-334.41Z" fill="#232427"/>
<path d="M781.032 0.135742H378.184V353.001H781.032V0.135742Z" fill="#C50A14"/>
<path d="M378 0.134766H428.552C622.992 0.134766 780.849 158.25 780.849 353H378V0.134766Z" fill="#232427"/>
<path d="M1729 0.135742H781.035V353.001H1729V0.135742Z" fill="#FDC182"/>
<path d="M1385.85 0.135742H1176.46V176.57H1385.85V0.135742Z" fill="#C50A14"/>
<path d="M1385.85 176.566H1176.46V353.001H1385.85V176.566Z" fill="#232427"/>
<path d="M1581.67 -334.41H1729V0.131805H1581.67C1489.5 0.131805 1414.67 -74.82 1414.67 -167.138C1414.67 -259.458 1489.5 -334.41 1581.67 -334.41Z" fill="#232427"/>
<path d="M1220.92 -334.41H510.992V0.131805H1220.92V-334.41Z" fill="#F8F8F7"/>
<path d="M510.993 0.135147H378.184V-165.064C451.53 -165.064 510.993 -91.1039 510.993 0.135147Z" fill="#FDC182"/>
</g>
</g>
<defs>
<clipPath id="clip0_345_234">
<rect width="1731" height="353" fill="white" transform="translate(-2)"/>
</clipPath>
</defs>
</svg>
