<svg width="51" height="58" viewBox="0 0 51 58" fill="none" xmlns="http://www.w3.org/2000/svg">
<path d="M26.463 38.9482C26.0399 40.5472 25.9757 42.1461 25.8246 43.7262C25.4997 47.1278 25.1106 50.5294 25.1635 53.9573C25.1748 54.6512 25.0501 55.3149 24.7215 55.9372C23.9546 57.3928 22.3528 58.1999 20.7057 57.951C19.1001 57.7058 17.7855 56.4123 17.5437 54.7794C17.4606 54.2175 17.4719 53.6443 17.4606 53.0749C17.3926 49.7601 17.7855 46.4754 18.0461 43.1794C18.065 42.9569 18.0688 42.7269 18.0386 42.5082C18.031 42.4591 17.8119 42.3686 17.7779 42.3988C17.487 42.6666 17.2037 42.9456 16.9355 43.2435C15.3337 45.0235 13.7395 46.811 12.1377 48.591C11.8317 48.9304 11.5181 49.266 11.1706 49.5564C9.81057 50.6802 7.99346 50.7745 6.55413 49.8204C5.19413 48.9191 4.56702 47.2447 4.9788 45.6194C5.17902 44.8274 5.59457 44.1562 6.13857 43.5528C8.81324 40.5887 11.4955 37.6321 14.1588 34.6567C14.9937 33.7214 15.7681 32.7334 16.5577 31.7605C16.6937 31.5945 16.8826 31.3796 16.6786 31.1608C16.5841 31.059 16.3839 31.0138 16.2328 31.01C14.6348 30.9798 13.0368 30.9459 11.435 30.9497C8.49591 30.9534 5.65124 30.3689 2.84435 29.5694C2.35702 29.4299 1.86213 29.2376 1.43902 28.966C-0.51787 27.6989 -0.472537 24.9083 1.50324 23.6714C2.09257 23.3018 2.73857 23.0793 3.44124 23.0604C4.2988 23.0341 5.15257 23.0001 6.01013 23.0227C8.57902 23.0906 11.1479 23.1887 13.7168 23.2716C14.1135 23.2829 14.5139 23.2792 14.9144 23.2603C15.1486 23.249 15.3072 22.9549 15.1864 22.755C14.9484 22.3666 14.6952 21.9857 14.4421 21.6086C12.8366 19.2516 11.2537 16.8796 9.82191 14.4132C9.42146 13.7231 9.02857 13.0255 8.71124 12.2976C8.04635 10.7779 8.0388 9.19023 8.4128 7.60258C8.52613 7.11611 8.76035 6.62586 9.05124 6.21858C10.3092 4.46123 12.8101 4.57436 13.9359 6.41468C14.2344 6.90492 14.4195 7.44419 14.529 8.00986C14.6499 8.63587 14.9144 9.20154 15.2921 9.71442C17.2604 12.3693 19.2324 15.0242 21.2119 17.6753C21.2686 17.7507 21.4084 17.762 21.5104 17.8035C21.8428 17.5961 21.8126 17.219 21.873 16.9097C22.5795 13.1575 23.267 9.40518 23.947 5.64914C24.0377 5.14758 24.0264 4.62339 24.117 4.12183C24.2228 3.50713 24.321 2.87358 24.5364 2.2966C25.0615 0.886197 26.3724 0.0112949 27.8419 -1.85136e-05C29.387 -0.0113319 30.7017 0.905053 31.2495 2.39465C31.5064 3.09608 31.6008 3.82768 31.6424 4.57436C31.7444 6.41468 31.4384 8.20973 31.0984 10.001C30.8226 11.4491 30.5581 12.901 30.2899 14.3454C30.7924 14.4698 30.9775 14.1342 31.2079 13.9117C33.3801 11.8074 35.5524 9.7031 37.7132 7.5875C38.6992 6.62586 39.7835 5.79621 40.9659 5.09101C41.6686 4.67241 42.4279 4.46123 43.2515 4.4914C45.6428 4.57436 46.9726 6.96526 45.7448 9.02807C45.4275 9.56357 45.0081 10.0425 44.5888 10.5064C41.9595 13.4328 39.3226 16.3591 36.6706 19.2667C35.3635 20.7035 34.1206 22.1893 32.9381 23.7279C32.8361 23.8637 32.7379 24.0032 32.6472 24.1503C32.447 24.4709 32.5528 24.7311 32.9004 24.7461C33.3575 24.765 33.8146 24.7612 34.2717 24.765C37.6415 24.765 41.0112 24.7839 44.381 24.7575C45.537 24.7499 46.6628 24.897 47.7735 25.1572C49.1901 25.4891 50.2668 26.2999 50.7692 27.7065C51.6986 30.301 49.7266 33.0954 46.9877 32.7937C42.7075 32.3186 38.431 32.6429 34.1546 32.5147C33.8675 32.5071 33.5841 32.4996 33.297 32.5147C32.9117 32.5411 32.4055 32.3563 32.1826 32.7145C31.9219 33.1294 32.4055 33.4235 32.6321 33.7139C34.8044 36.5045 36.9992 39.2763 39.3339 41.9387C39.8968 42.5836 40.4635 43.2247 41.0075 43.8846C41.2946 44.2354 41.5817 44.6049 41.7857 45.0047C42.5979 46.5998 42.3448 48.3949 41.1661 49.6017C40.0177 50.7783 38.1175 51.1516 36.5723 50.5143C35.5335 50.0844 34.6495 49.4093 34.1621 48.4251C33.5464 47.1731 32.6284 46.1662 31.7821 45.0989C30.2597 43.1757 28.7108 41.2712 27.1695 39.363C27.0297 39.1933 26.9126 38.9784 26.4706 38.9407L26.463 38.9482Z" fill="#E8DFCC"/>
</svg>
