<svg width="575" height="322" viewBox="0 0 575 322" fill="none" xmlns="http://www.w3.org/2000/svg">
<g clip-path="url(#clip0_42_543)">
<path d="M397.058 321.91C485.937 321.91 557.988 315.996 557.988 308.7C557.988 301.404 485.937 295.49 397.058 295.49C308.179 295.49 236.128 301.404 236.128 308.7C236.128 315.996 308.179 321.91 397.058 321.91Z" fill="#E7E2D1"/>
<path d="M331.658 285.82C331.658 285.82 330.748 294.54 315.508 297.15C300.268 299.77 302.008 308.52 302.008 308.52H343.418L347.698 285.82H331.648H331.658Z" fill="#F0C35A"/>
<path d="M482.108 279C482.108 279 490.828 279.91 493.438 295.15C496.058 310.39 504.808 308.65 504.808 308.65V267.24L482.108 262.96V279.01V279Z" fill="#F0C35A"/>
<path d="M17.628 0H144.268C153.908 0 161.728 7.82 161.728 17.46V294.87C161.728 304.51 153.908 312.33 144.268 312.33H17.628C7.98797 312.33 0.167969 304.51 0.167969 294.87V17.46C0.167969 7.82 7.98797 0 17.628 0Z" fill="#2D2825"/>
<path d="M144.268 7.26999H17.6275C11.9997 7.26999 7.4375 11.8322 7.4375 17.46V294.87C7.4375 300.498 11.9997 305.06 17.6275 305.06H144.268C149.895 305.06 154.457 300.498 154.457 294.87V17.46C154.457 11.8322 149.895 7.26999 144.268 7.26999Z" fill="#F0C35A"/>
<path d="M295.378 134.19C295.378 134.19 292.978 131.79 282.278 130.53C277.828 130.01 279.188 134.71 279.188 134.71C279.188 134.71 271.658 136.14 274.838 143.87C278.018 151.6 275.978 155.09 298.368 145.18L295.388 134.18L295.378 134.19Z" fill="#D48F4A"/>
<path d="M459.888 247.65C488.478 226.75 481.148 198.3 464.578 194.08C459.768 192.85 454.688 193.41 450.068 195.23C444.958 197.24 437.118 201.14 427.598 208.57C415.728 201.72 392.818 189.61 370.248 183.87C337.808 175.62 336.158 217.96 331.208 235.56C326.258 253.16 303.718 271.85 323.508 288.35C333.408 297.15 353.338 299.88 357.738 290.53C362.138 281.18 375.648 252.61 375.698 241.61C379.208 246.11 382.828 251.15 386.648 255.34C378.478 268.63 362.438 299.83 386.748 307.02C410.938 314.17 425.788 293.85 445.038 291.65C464.288 289.45 484.658 295.28 493.458 274.94C502.258 254.59 493.978 241.07 459.888 247.66V247.65Z" fill="#595149"/>
<mask id="mask0_42_543" style="mask-type:luminance" maskUnits="userSpaceOnUse" x="315" y="182" width="182" height="127">
<path d="M459.888 247.65C488.478 226.75 481.148 198.3 464.578 194.08C459.768 192.85 454.688 193.41 450.068 195.23C444.958 197.24 437.118 201.14 427.598 208.57C415.728 201.72 392.818 189.61 370.248 183.87C337.808 175.62 336.158 217.96 331.208 235.56C326.258 253.16 303.718 271.85 323.508 288.35C333.408 297.15 353.338 299.88 357.738 290.53C362.138 281.18 375.648 252.61 375.698 241.61C379.208 246.11 382.828 251.15 386.648 255.34C378.478 268.63 362.438 299.83 386.748 307.02C410.938 314.17 425.788 293.85 445.038 291.65C464.288 289.45 484.658 295.28 493.458 274.94C502.258 254.59 493.978 241.07 459.888 247.66V247.65Z" fill="white"/>
</mask>
<g mask="url(#mask0_42_543)">
<path d="M317.688 252.94C317.688 252.94 319.647 289.97 368.188 281.63" stroke="#7C864E" stroke-width="1.5" stroke-miterlimit="10"/>
<path d="M478.508 241.6C478.508 241.6 499.098 256.88 467.718 295.49" stroke="#7C864E" stroke-width="1.5" stroke-miterlimit="10"/>
</g>
<path d="M401.688 91.28C401.688 91.28 381.798 94.78 362.558 109.07C343.308 123.37 335.068 114.02 310.868 119.52C286.678 125.02 287.228 157.45 305.368 156.91C323.518 156.37 345.478 166.82 365.858 154.17C386.238 141.52 409.478 142.78 401.688 91.29V91.28Z" fill="#C50A14"/>
<path d="M429.208 84.94C419.598 83.36 409.718 85.78 401.688 91.29C393.948 96.6 384.998 105.67 382.348 120.08C377.398 147.02 393.438 153.74 375.888 185.43C421.578 228.11 454.328 233.11 473.878 223.06C497.818 220.16 500.568 193.86 490.668 182.81C480.768 171.76 487.368 152.52 469.768 132.72C454.688 115.75 454.548 89.09 429.198 84.93L429.208 84.94Z" fill="#C50A14"/>
<path d="M459.888 247.65L433.348 273.18" stroke="#2D2825" stroke-width="1.5" stroke-linecap="round" stroke-linejoin="round"/>
<path d="M423.358 68.28C423.358 68.28 414.778 74.09 418.248 80.85C425.038 78.57 423.358 68.28 423.358 68.28Z" fill="#F0C35A"/>
<path d="M375.698 217.82C375.698 217.82 376.578 227.9 375.698 241.6" stroke="#2D2825" stroke-width="1.5" stroke-linecap="round" stroke-linejoin="round"/>
<path d="M177.518 144.22H201.108C219.308 144.22 237.488 142.2 255.078 137.55C277.128 131.71 322.508 130.98 391.478 182.89C493.118 259.39 600.058 237.4 600.058 237.4" stroke="#E8DFCC" stroke-width="1.5" stroke-linecap="round" stroke-linejoin="round"/>
<path d="M449.598 96.02C445.268 92.55 439.368 91.73 434.278 93.95C427.658 96.83 420.128 102.64 421.398 114.03C423.598 133.83 436.248 140.97 429.648 148.12C423.048 155.27 405.578 153.07 403.038 168.47C400.498 183.87 417.378 199.81 435.878 186.07C454.388 172.32 464.288 180.02 478.578 162.97C492.228 146.7 490.138 128.56 449.588 96.02H449.598Z" fill="#C50A14"/>
<path d="M406.617 177.12C406.617 177.12 403.567 175.63 393.037 177.92C388.657 178.87 391.477 182.88 391.477 182.88C391.477 182.88 384.817 186.68 390.337 192.96C395.857 199.24 395.067 203.2 413.017 186.55L406.617 177.12Z" fill="#D48F4A"/>
<path d="M407.618 95.61L422.648 90.2L416.168 70.49L401.148 75.9L407.618 95.61Z" fill="#D48F4A"/>
<mask id="mask1_42_543" style="mask-type:luminance" maskUnits="userSpaceOnUse" x="401" y="70" width="22" height="26">
<path d="M407.618 95.61L422.648 90.2L416.168 70.49L401.148 75.9L407.618 95.61Z" fill="white"/>
</mask>
<g mask="url(#mask1_42_543)">
<path d="M353.028 55C353.028 75.74 369.998 92.71 390.738 92.71C411.478 92.71 428.448 75.74 428.448 55H353.028Z" fill="#2D2825"/>
</g>
<path d="M403.228 174.46C403.228 174.46 395.878 162.29 413.018 157.55C430.158 152.8 435.568 148.93 437.938 140.88C440.308 132.84 412.558 117.61 439.288 94.26" stroke="#2D2825" stroke-width="1.5" stroke-linecap="round" stroke-linejoin="round"/>
<path d="M480.538 160.45C480.538 160.45 476.508 172.4 458.238 176.64C439.968 180.88 433.148 198.06 415.268 187.58" stroke="#2D2825" stroke-width="1.5" stroke-linecap="round" stroke-linejoin="round"/>
<path d="M388.788 110.17C388.788 110.17 380.468 124.48 382.388 142.01" stroke="#2D2825" stroke-width="1.5" stroke-linecap="round" stroke-linejoin="round"/>
<path d="M347.708 119.98C347.708 119.98 352.668 126.91 352.998 133.6" stroke="#2D2825" stroke-width="1.5" stroke-linecap="round" stroke-linejoin="round"/>
<path d="M350.358 117.95C350.358 117.95 354.358 120.06 357.738 126.79" stroke="#2D2825" stroke-width="1.5" stroke-linecap="round" stroke-linejoin="round"/>
<path d="M440.478 143.06C440.478 143.06 448.558 145.77 452.748 150.99" stroke="#2D2825" stroke-width="1.5" stroke-linecap="round" stroke-linejoin="round"/>
<path d="M474.698 191.17C474.698 191.17 480.028 184.52 486.368 182.38" stroke="#2D2825" stroke-width="1.5" stroke-linecap="round" stroke-linejoin="round"/>
<path d="M441.438 139.86C441.438 139.86 445.918 139.23 452.598 142.69" stroke="#2D2825" stroke-width="1.5" stroke-linecap="round" stroke-linejoin="round"/>
<path d="M388.148 252.94C388.148 252.94 396.538 236.3 413.018 221.71" stroke="#2D2825" stroke-width="1.5" stroke-linecap="round" stroke-linejoin="round"/>
<path d="M437.598 276.65L441.438 270.22" stroke="#2D2825" stroke-width="1.5" stroke-linecap="round" stroke-linejoin="round"/>
<path d="M80.9483 133.6C82.445 133.6 83.6583 132.387 83.6583 130.89C83.6583 129.393 82.445 128.18 80.9483 128.18C79.4516 128.18 78.2383 129.393 78.2383 130.89C78.2383 132.387 79.4516 133.6 80.9483 133.6Z" fill="#2D2825"/>
<path d="M78.248 158.87C78.248 157.38 79.458 156.16 80.958 156.16C82.458 156.16 83.668 157.37 83.668 158.87C83.668 160.37 82.458 161.58 80.958 161.58C79.458 161.58 78.248 160.37 78.248 158.87Z" fill="#2D2825"/>
<path d="M80.9478 171.49C85.7278 171.49 89.6378 167.58 89.6378 162.8V125.64C89.6378 120.86 85.7278 116.95 80.9478 116.95C76.1678 116.95 72.2578 120.86 72.2578 125.64V162.8C72.2578 167.58 76.1678 171.49 80.9478 171.49Z" stroke="#FAF5EA" stroke-width="1.5" stroke-linecap="round" stroke-linejoin="round"/>
<path d="M167.448 116.94H141.478C135.618 116.94 130.868 121.69 130.868 127.55V160.88C130.868 166.74 135.618 171.49 141.478 171.49H167.448C173.308 171.49 178.058 166.74 178.058 160.88V127.55C178.058 121.69 173.308 116.94 167.448 116.94Z" fill="#FAF5EA"/>
<path d="M113.988 133.59H151.218C152.708 133.59 153.928 132.38 153.928 130.88C153.928 129.39 152.718 128.17 151.218 128.17H113.988C112.498 128.17 111.278 129.38 111.278 130.88C111.278 132.37 112.488 133.59 113.988 133.59Z" fill="#FAF5EA"/>
<path d="M113.988 160.25H151.218C152.708 160.25 153.928 159.04 153.928 157.54C153.928 156.05 152.718 154.83 151.218 154.83H113.988C112.498 154.83 111.278 156.04 111.278 157.54C111.278 159.03 112.488 160.25 113.988 160.25Z" fill="#FAF5EA"/>
<path d="M94.9082 93.52L105.878 107.32" stroke="#2D2825" stroke-width="1.5" stroke-linecap="round" stroke-linejoin="round"/>
<path d="M109.658 75.4L113.368 91.99" stroke="#2D2825" stroke-width="1.5" stroke-linecap="round" stroke-linejoin="round"/>
<path d="M129.008 81.91V99.41" stroke="#2D2825" stroke-width="1.5" stroke-linecap="round" stroke-linejoin="round"/>
<path d="M94.2979 194.92L105.258 181.11" stroke="#2D2825" stroke-width="1.5" stroke-linecap="round" stroke-linejoin="round"/>
<path d="M109.048 213.03L112.758 196.45" stroke="#2D2825" stroke-width="1.5" stroke-linecap="round" stroke-linejoin="round"/>
<path d="M128.397 206.53V189.03" stroke="#2D2825" stroke-width="1.5" stroke-linecap="round" stroke-linejoin="round"/>
<path d="M385.118 60.06C385.118 60.06 380.928 57.1 378.598 60.21C377.818 61.25 377.628 62.61 377.878 63.89C379.308 71 385.118 71 385.118 71" fill="#C97931"/>
<path d="M397.588 85.37H397.348C389.068 85.37 382.298 78.6 382.298 70.32V58.6C382.298 47.33 391.518 38.11 402.788 38.11C414.058 38.11 423.278 47.33 423.278 58.6V59.68C423.278 73.81 411.718 85.37 397.588 85.37Z" fill="#D48F4A"/>
<mask id="mask2_42_543" style="mask-type:luminance" maskUnits="userSpaceOnUse" x="382" y="38" width="42" height="48">
<path d="M397.588 85.37H397.348C389.068 85.37 382.298 78.6 382.298 70.32V58.6C382.298 47.33 391.518 38.11 402.788 38.11C414.058 38.11 423.278 47.33 423.278 58.6V59.68C423.278 73.81 411.718 85.37 397.588 85.37Z" fill="white"/>
</mask>
<g mask="url(#mask2_42_543)">
<path d="M413.308 82.35C417.218 82.35 420.388 79.1802 420.388 75.27C420.388 71.3598 417.218 68.19 413.308 68.19C409.397 68.19 406.228 71.3598 406.228 75.27C406.228 79.1802 409.397 82.35 413.308 82.35Z" fill="#CC7048"/>
<path d="M385.018 82.35C388.928 82.35 392.098 79.1802 392.098 75.27C392.098 71.3598 388.928 68.19 385.018 68.19C381.107 68.19 377.938 71.3598 377.938 75.27C377.938 79.1802 381.107 82.35 385.018 82.35Z" fill="#CC7048"/>
</g>
<path d="M391.448 64.11C390.328 64.11 389.408 63.19 389.408 62.07V60.84C389.408 59.72 390.328 58.8 391.448 58.8C392.568 58.8 393.488 59.72 393.488 60.84V62.07C393.488 63.19 392.568 64.11 391.448 64.11Z" fill="#2D2825"/>
<path d="M388.428 59.72L391.448 60.87" stroke="#2D2825" stroke-width="1.5" stroke-linecap="round" stroke-linejoin="round"/>
<path d="M406.878 64.11C407.998 64.11 408.918 63.19 408.918 62.07V60.84C408.918 59.72 407.998 58.8 406.878 58.8C405.758 58.8 404.838 59.72 404.838 60.84V62.07C404.838 63.19 405.758 64.11 406.878 64.11Z" fill="#2D2825"/>
<path d="M409.898 59.72L406.878 60.87" stroke="#2D2825" stroke-width="1.5" stroke-linecap="round" stroke-linejoin="round"/>
<path d="M395.538 71.71C397.948 72.99 400.368 72.99 402.778 71.71" stroke="#2D2825" stroke-width="1.5" stroke-linecap="round" stroke-linejoin="round"/>
<path d="M399.158 64.37C399.158 64.37 397.058 64.75 397.058 66.25C397.058 67.75 399.158 68.28 399.158 68.28" stroke="#2D2825" stroke-width="1.5" stroke-linecap="round" stroke-linejoin="round"/>
<path d="M393.488 54.89C393.488 54.12 392.578 53.49 391.448 53.49C390.318 53.49 389.408 54.12 389.408 54.89C389.408 55.66 390.318 55.68 391.448 55.68C392.578 55.68 393.488 55.67 393.488 54.89Z" fill="#2D2825"/>
<path d="M408.928 54.89C408.928 54.12 408.018 53.49 406.888 53.49C405.758 53.49 404.848 54.12 404.848 54.89C404.848 55.66 405.758 55.68 406.888 55.68C408.018 55.68 408.928 55.67 408.928 54.89Z" fill="#2D2825"/>
<path d="M392.058 60.59C392.058 60.93 391.788 61.2 391.448 61.2C391.108 61.2 390.838 60.93 390.838 60.59C390.838 60.25 391.108 59.98 391.448 59.98C391.788 59.98 392.058 60.25 392.058 60.59Z" fill="#E7E2D1"/>
<path d="M407.488 60.59C407.488 60.93 407.218 61.2 406.878 61.2C406.538 61.2 406.268 60.93 406.268 60.59C406.268 60.25 406.538 59.98 406.878 59.98C407.218 59.98 407.488 60.25 407.488 60.59Z" fill="#E7E2D1"/>
<path d="M408.538 41.89C408.538 41.89 400.668 38.84 390.898 45.95C381.128 53.06 371.988 36.81 384.848 32.08C397.708 27.34 413.148 20.32 425.388 39.9C439.328 34.45 444.988 50.48 462.628 61.92C469.488 66.37 475.318 65.97 481.318 64.77C509.088 59.22 522.328 97.87 496.718 109.94C485.548 115.2 471.328 115.8 458.248 109.95C429.418 97.17 424.778 79.12 420.038 52.39C411.238 49.34 408.538 41.9 408.538 41.9V41.89Z" fill="#2D2825"/>
<path d="M420.448 60.06C420.448 60.06 424.638 57.1 426.968 60.21C427.748 61.25 427.938 62.61 427.688 63.89C426.258 71 420.448 71 420.448 71" fill="#D48F4A"/>
<path d="M404.838 87.14C404.838 87.14 393.888 90.79 407.488 114.11C427.788 106.24 441.428 83.05 418.618 77.96C418.718 78.28 411.888 89.05 404.838 87.15V87.14Z" fill="#F0C35A"/>
<mask id="mask3_42_543" style="mask-type:luminance" maskUnits="userSpaceOnUse" x="400" y="77" width="31" height="38">
<path d="M404.838 87.14C404.838 87.14 393.888 90.79 407.488 114.11C427.788 106.24 441.428 83.05 418.618 77.96C418.718 78.28 411.888 89.05 404.838 87.15V87.14Z" fill="white"/>
</mask>
<g mask="url(#mask3_42_543)">
<path d="M405.648 105.83C406.718 104.25 406.298 102.1 404.718 101.03C403.138 99.96 400.988 100.38 399.918 101.96C398.848 103.54 399.268 105.69 400.848 106.76C402.428 107.83 404.578 107.41 405.648 105.83Z" stroke="#7C864E" stroke-width="1.5" stroke-miterlimit="10"/>
<path d="M415.878 104.94C416.948 103.36 416.528 101.21 414.948 100.14C413.368 99.07 411.218 99.49 410.148 101.07C409.078 102.65 409.498 104.8 411.078 105.87C412.658 106.94 414.808 106.52 415.878 104.94Z" stroke="#7C864E" stroke-width="1.5" stroke-miterlimit="10"/>
<path d="M431.457 95.01C432.527 93.43 432.107 91.28 430.527 90.21C428.947 89.14 426.797 89.56 425.727 91.14C424.657 92.72 425.077 94.87 426.657 95.94C428.237 97.01 430.387 96.59 431.457 95.01Z" stroke="#7C864E" stroke-width="1.5" stroke-miterlimit="10"/>
<path d="M420.287 96.2C421.357 94.62 420.937 92.47 419.357 91.4C417.777 90.33 415.627 90.75 414.557 92.33C413.487 93.91 413.907 96.06 415.487 97.13C417.067 98.2 419.217 97.78 420.287 96.2Z" stroke="#7C864E" stroke-width="1.5" stroke-miterlimit="10"/>
<path d="M414.758 86.99C415.828 85.41 415.408 83.26 413.828 82.19C412.248 81.12 410.098 81.54 409.028 83.12C407.958 84.7 408.378 86.85 409.958 87.92C411.538 88.99 413.688 88.57 414.758 86.99Z" stroke="#7C864E" stroke-width="1.5" stroke-miterlimit="10"/>
<path d="M409.128 96.2C410.198 94.62 409.778 92.47 408.198 91.4C406.618 90.33 404.468 90.75 403.398 92.33C402.328 93.91 402.748 96.06 404.328 97.13C405.908 98.2 408.058 97.78 409.128 96.2Z" stroke="#7C864E" stroke-width="1.5" stroke-miterlimit="10"/>
<path d="M414.408 115.55C415.478 113.97 415.058 111.82 413.478 110.75C411.898 109.68 409.748 110.1 408.678 111.68C407.608 113.26 408.028 115.41 409.608 116.48C411.188 117.55 413.338 117.13 414.408 115.55Z" stroke="#7C864E" stroke-width="1.5" stroke-miterlimit="10"/>
<path d="M426.408 104.71C427.478 103.13 427.058 100.98 425.478 99.91C423.898 98.84 421.748 99.26 420.678 100.84C419.608 102.42 420.028 104.57 421.608 105.64C423.188 106.71 425.338 106.29 426.408 104.71Z" stroke="#7C864E" stroke-width="1.5" stroke-miterlimit="10"/>
<path d="M425.508 86.4C426.578 84.82 426.158 82.67 424.578 81.6C422.998 80.53 420.848 80.95 419.778 82.53C418.708 84.11 419.128 86.26 420.708 87.33C422.288 88.4 424.438 87.98 425.508 86.4Z" stroke="#7C864E" stroke-width="1.5" stroke-miterlimit="10"/>
</g>
<path d="M431.718 74.8C431.718 74.8 421.538 72.84 419.218 80.07C425.628 83.26 431.718 74.8 431.718 74.8Z" fill="#F0C35A"/>
</g>
<defs>
<clipPath id="clip0_42_543">
<rect width="600.64" height="321.91" fill="white" transform="translate(0.167969)"/>
</clipPath>
</defs>
</svg>
