<svg width="155" height="245" viewBox="0 0 155 245" fill="none" xmlns="http://www.w3.org/2000/svg">
<g clip-path="url(#clip0_343_115)">
<path d="M34.4197 116.28C34.0797 114.86 32.8797 114.44 31.9397 113.76C26.2697 109.65 20.8497 105.27 16.1697 100.03C12.8997 96.37 9.97967 92.48 8.06967 87.92C5.82967 82.57 4.85967 77.08 6.36967 71.31C6.97967 68.99 7.90967 66.81 9.11967 64.77C10.6397 62.2 12.8497 60.37 15.6097 59.2C16.6797 58.75 17.9097 58.64 18.9297 57.72C18.3097 56.95 17.7497 56.24 17.1797 55.52C11.4097 48.25 6.67967 40.35 3.03967 31.81C2.41967 30.36 1.87967 28.86 1.37967 27.36C-0.910327 20.5 -0.360327 13.91 3.07967 7.49C5.63967 2.72 9.61967 0.389999 14.8497 0.0399989C17.7797 -0.160001 20.6597 0.299999 23.3597 1.48C26.4997 2.85 29.5897 4.34 32.6697 5.84C35.4397 7.19 37.6297 9.3 39.6497 11.58C42.7997 15.13 45.7197 18.87 48.4497 22.77C49.1297 23.74 49.8097 24.72 50.5297 25.66C51.1397 26.45 51.7497 26.38 52.3897 25.49C52.5397 25.28 52.6697 25.04 52.8197 24.82C56.9497 18.78 63.0097 16.64 70.0497 18.64C76.2797 20.41 81.1597 23.94 84.6597 29.42C88.4697 35.38 90.9597 41.88 92.8297 48.65C95.7897 59.37 97.4497 70.3 97.8497 81.42C97.9297 83.66 98.0697 85.89 98.2397 88.13C98.2797 88.72 98.6897 89.04 99.3297 88.89C99.4597 88.86 99.5797 88.8 99.6997 88.75C106.71 85.5 113.08 87.38 119.17 91.22C123.62 94.02 126.92 97.92 129.49 102.47C131.84 106.62 133.64 111.01 135.19 115.5C138.57 125.26 140.6 135.34 142.14 145.53C143.46 154.27 144.39 163.06 144.18 171.92C144.11 174.81 143.89 177.71 143.58 180.59C143.29 183.35 142.73 186.08 141.14 188.45C140.53 189.35 140.63 190.14 141.25 190.97C145.6 196.77 150.01 202.53 155.27 207.56C160.13 212.2 165.05 216.78 169.9 221.42C172.47 223.88 175.04 226.35 177.45 228.95C181.21 233.01 180.72 239.02 176.46 242.21C173.42 244.48 170.12 244.64 166.78 242.92C164.9 241.95 163.27 240.58 161.89 238.96C159.92 236.64 157.69 234.6 155.48 232.52C150.87 228.19 146.27 223.85 141.78 219.39C138.13 215.76 134.76 211.87 131.76 207.68C129.92 205.11 127.96 202.61 126.26 199.95C124.83 197.7 123.19 196.51 120.39 197.24C119.13 197.57 117.79 197.11 116.49 196.82C111.97 195.82 107.58 194.41 103.24 192.83C90.1897 188.07 77.6197 182.26 65.8297 174.92C52.6897 166.73 41.5297 156.41 33.2497 143.18C31.4997 140.38 29.9297 137.49 28.8397 134.35C28.0597 132.08 27.6497 129.76 27.8397 127.35C28.1597 123.36 29.6597 119.96 32.8697 117.44C33.3797 117.04 33.8997 116.64 34.3897 116.26L34.4197 116.28ZM106.55 182.47C104.34 178.81 102.29 175.31 99.4997 172.26C94.5097 166.82 89.3597 161.54 84.1997 156.26C73.7997 145.61 61.4597 137.96 47.9197 132.06C46.3397 131.37 44.7397 130.78 43.0297 130.54C42.5197 130.47 42.0597 131.03 42.2397 131.56C42.4997 132.3 42.7497 133.06 43.1197 133.76C46.4097 140.1 50.1597 146.14 55.0897 151.36C60.9197 157.52 67.4597 162.81 74.7297 167.18C84.2397 172.9 94.0697 177.97 104.29 182.3C104.86 182.54 105.42 182.97 106.55 182.47ZM126.09 172.32C126.17 170.64 126.27 169.62 126.25 168.6C126.15 161.46 125.33 154.39 124.25 147.35C122.84 138.21 120.99 129.17 117.9 120.43C116.66 116.94 115.26 113.53 113.29 110.38C112.3 108.8 111.17 107.36 109.54 106.38C108.33 105.66 107.68 105.81 107.03 107.12C105.16 110.82 104.15 114.75 103.86 118.88C103.34 126.34 104.4 133.62 106.4 140.77C108.26 147.4 111 153.68 114.13 159.8C114.67 160.86 115.22 161.9 116.1 162.74C119.24 165.73 122.37 168.74 126.1 172.31L126.09 172.32ZM63.6797 115.12C66.5897 116.65 69.4997 118.19 72.4297 119.69C72.5897 119.77 72.9697 119.67 73.0997 119.52C73.2297 119.37 73.1997 119.06 73.1897 118.82C73.1897 118.7 73.0797 118.59 73.0097 118.47C70.1197 113.45 67.2397 108.43 64.3397 103.42C63.9497 102.74 63.4697 102.1 62.9697 101.49C59.2097 96.92 55.3497 92.43 51.1397 88.26C48.9897 86.13 46.7597 84.07 44.0097 82.7C39.5397 80.47 35.0397 78.29 30.5397 76.09C28.6297 75.16 26.5797 74.66 24.4997 74.3C22.2697 73.92 21.6297 74.52 21.5597 76.74C21.5097 78.09 21.8397 79.35 22.2597 80.6C23.0197 82.87 24.2397 84.9 25.6797 86.79C28.0697 89.94 30.8197 92.77 33.7797 95.39C42.8197 103.37 53.0297 109.59 63.6897 115.11L63.6797 115.12ZM47.6997 61.27C47.7797 61.02 47.9797 60.75 47.9197 60.55C46.4197 55.64 44.7897 50.78 42.3197 46.24C38.0297 38.35 32.8997 31.05 27.3197 24.02C24.6597 20.67 21.0497 18.9 17.3097 17.25C16.6897 16.98 15.9997 17.46 15.8797 18.17C15.5297 20.2 16.0997 22.09 16.7697 23.95C18.8397 29.68 21.7897 34.95 24.9997 40.1C30.2497 48.53 37.3297 55.1 45.5997 60.45C46.2197 60.85 46.8197 61.47 47.6997 61.26V61.27ZM80.5497 94.47C80.5897 93.93 80.6897 93.32 80.6797 92.71C80.5297 85.99 80.3097 79.26 79.5697 72.57C78.6497 64.29 77.0397 56.14 74.2797 48.26C73.2297 45.27 72.0297 42.34 70.3297 39.64C69.6997 38.64 69.0897 37.63 68.0597 36.94C67.2697 36.41 66.5997 36.56 66.1497 37.42C65.0697 39.46 64.8297 41.68 64.7897 43.94C64.6797 50.18 65.4997 56.31 67.1797 62.31C68.2797 66.25 69.5697 70.13 70.6397 74.08C72.4897 80.89 75.7197 87.09 78.9297 93.29C79.1997 93.81 79.4197 94.56 80.5597 94.46L80.5497 94.47Z" fill="#E8DFCC"/>
</g>
<defs>
<clipPath id="clip0_343_115">
<rect width="180" height="244.09" fill="white"/>
</clipPath>
</defs>
</svg>
