<svg width="144" height="148" viewBox="0 0 144 148" fill="none" xmlns="http://www.w3.org/2000/svg">
<g clip-path="url(#clip0_347_279)">
<path d="M106.619 37.9209C112.405 39.1947 117.824 40.6001 123.177 42.2507C123.328 42.2985 123.478 42.3643 123.634 42.3882C128.771 43.2254 132.981 46.084 137.305 48.6496C139.537 49.9712 141.233 51.9268 142.701 54.0438C144.493 56.6273 144.733 60.945 141.437 63.7976C139.783 65.2269 137.931 66.3153 135.952 67.2124C132.368 68.839 128.651 70.0649 124.765 70.7766C120.513 71.56 116.285 72.4929 112.02 73.2106C108.785 73.7548 105.507 74.0598 102.247 74.4904C99.2275 74.891 96.2142 75.3216 93.1949 75.7163C90.5665 76.0632 87.9141 76.0632 85.2677 76.111C78.0503 76.2306 70.8329 76.3143 63.6214 76.4818C61.2998 76.5356 58.9842 76.8227 56.6626 76.9782C52.4224 77.2712 48.1761 77.4745 43.9419 77.8453C39.87 78.1981 35.8102 78.7065 31.7444 79.161C30.9384 79.2507 30.7821 79.4301 30.8482 80.2613C31.1129 83.5206 31.2512 86.7858 31.1911 90.063C31.149 92.2159 31.1911 94.3748 31.0768 96.5217C30.5836 106.168 30.7279 84.4415 30.7159 94.0937C30.7039 101.115 30.6858 108.129 30.7279 115.15C30.74 117.542 30.9565 119.929 31.0467 122.321C31.149 125.191 31.2031 128.056 31.2933 130.926C31.3354 132.362 31.3835 133.797 31.4858 135.226C31.5579 136.165 31.8166 136.38 32.6766 136.32C35.6358 136.111 38.5949 135.89 41.5481 135.651C43.4667 135.495 45.3914 135.346 47.316 135.507C49.77 135.71 51.6886 137.517 52.0855 139.861C52.5126 142.408 51.2856 144.705 48.976 145.739C48.2964 146.044 47.5927 146.14 46.8709 146.188C42.7931 146.469 38.7092 146.738 34.6314 147.001C30.3911 147.276 26.1509 147.581 21.9106 147.797C16.4615 148.078 11.0123 148.138 5.56914 147.557C4.43841 147.438 3.34977 147.187 2.35136 146.654C0.811641 145.829 -0.0484378 144.567 -0.0063361 142.791C0.0297511 141.117 0.88983 139.933 2.33933 139.161C3.26557 138.665 4.27 138.372 5.32254 138.294C8.91923 138.019 12.5159 137.756 16.1126 137.499C16.7502 137.451 17.3937 137.481 18.0373 137.451C19.8496 137.379 20.6937 136.476 20.5694 134.742C20.4912 133.629 20.3709 132.517 20.3589 131.399C20.3047 127.254 20.3228 123.104 19.8777 118.972C19.7394 117.71 19.7755 116.424 19.7755 115.144C19.7695 102.699 19.7574 121.633 19.7815 109.194C19.7815 106.724 19.9379 104.254 20.01 101.784C20.1003 98.5969 20.1905 95.4094 20.2446 92.2159C20.2987 88.9447 20.3228 85.6795 20.3469 82.4083C20.3529 81.1703 20.2506 81.0507 18.9695 81.0208C17.6042 80.9849 16.2389 81.0268 14.8796 80.9969C13.7609 80.973 12.6302 80.9431 11.5175 80.8115C8.56438 80.4647 6.73596 78.6227 6.36306 75.6984C6.30291 75.2259 6.30291 74.7415 6.2969 74.2631C6.23675 67.009 6.14653 59.749 6.14052 52.4949C6.14052 49.3074 6.30291 46.1199 6.41117 42.9324C6.51943 39.7449 6.68784 36.5574 6.74799 33.3699C6.84422 28.6635 6.98857 23.963 7.69828 19.2983C7.84263 18.3475 7.78249 17.4385 7.51785 16.4816C6.88632 14.2091 8.08923 12.128 10.3687 11.4343C11.3611 11.1353 12.4137 11.0456 13.4361 10.8482C15.4811 10.4595 17.526 10.0648 19.571 9.67009C20.2807 9.53254 20.6536 9.16177 20.7198 8.38433C20.822 7.11651 21.0145 5.84869 21.219 4.59283C21.5137 2.74492 22.4459 1.30368 24.1781 0.490358C27.2275 -0.94491 30.7099 0.902998 31.3534 4.25196C31.5519 5.28056 31.4677 6.31515 31.4076 7.34974C31.3534 8.31257 31.5279 8.53384 32.4421 8.50991C35.0103 8.45609 37.5725 8.39629 40.1407 8.2707C48.0799 7.88199 56.013 7.87003 63.9522 8.25874C66.1956 8.36639 68.4391 8.39629 70.6885 8.40227C82.7176 8.43815 94.7527 8.46207 106.782 8.48599C108.706 8.48599 110.625 8.53384 112.544 8.76707C113.891 8.92853 115.268 8.91059 116.628 8.92255C120.002 8.94648 123.37 9.14382 126.672 9.8495C129.487 10.4535 132.259 11.2608 135.032 12.0443C135.79 12.2596 136.53 12.6423 137.179 13.0908C139.808 14.9148 140.343 18.3774 138.472 21.1582C137.841 22.0971 136.975 22.8088 136.103 23.5204C132.771 26.2534 128.867 27.9638 124.855 29.3512C119.611 31.1632 114.613 33.4776 109.687 35.9893C108.712 36.4857 107.678 36.9282 106.637 37.915L106.619 37.9209ZM117.746 19.9083C114.306 19.7229 111.112 19.4299 107.918 19.4C96.6893 19.3103 85.4662 19.4658 74.2371 19.2086C70.6284 19.1249 67.0196 19.1429 63.4109 19.0412C55.8747 18.8319 48.3325 18.7661 40.8023 19.0711C36.3154 19.2505 31.8286 19.4359 27.3357 19.412C24.1962 19.4 21.0927 19.7708 17.9771 20.004C17.0328 20.0758 16.8584 20.2911 16.9005 21.1821C16.9125 21.4991 16.9547 21.816 16.9847 22.133C17.52 27.6169 17.6584 33.1128 17.4899 38.6147C17.3757 42.2806 17.0749 45.9405 16.9907 49.6064C16.9005 53.4338 16.9366 57.2612 16.9847 61.0886C17.0028 62.9185 17.1712 64.7485 17.2674 66.5844C17.2975 67.1825 17.6223 67.4276 18.2117 67.3559C19.9258 67.1346 21.5678 67.4815 23.1677 68.0317C23.8593 68.2709 24.557 68.4144 25.2848 68.4144C28.2499 68.4264 31.2151 68.3785 34.1683 67.9958C37.2657 67.5951 40.3692 67.2004 43.4848 66.9612C49.0001 66.5366 54.5214 66.2256 60.0428 65.8668C61.5645 65.7711 63.0861 65.6276 64.6078 65.6037C71.5847 65.49 78.5615 65.4003 85.5384 65.3286C88.4314 65.2987 91.3003 65.0535 94.1632 64.6648C97.9764 64.1445 101.772 63.4807 105.597 63.1099C112.159 62.476 118.546 60.9151 124.982 59.6174C126.924 59.2227 128.849 58.6426 130.744 57.4944C129.156 56.3282 127.496 55.5329 125.92 54.6239C124.873 54.0199 123.761 53.6311 122.582 53.3202C119.178 52.4112 115.773 51.4962 112.399 50.5034C108.688 49.4091 104.923 48.7213 101.122 48.1771C97.4772 47.6509 93.8144 47.2203 90.1575 46.7718C88.9546 46.6222 87.7818 46.383 86.6992 45.8329C83.9385 44.4275 82.7296 41.4852 83.7761 38.8C84.3956 37.2093 85.5925 36.2046 87.1262 35.5587C91.571 33.6989 95.7571 31.3366 99.9312 28.9744C105.236 25.9723 110.679 23.2872 116.297 20.931C116.73 20.7516 117.193 20.6379 117.752 19.9083H117.746Z" fill="#E8DFCC"/>
</g>
<defs>
<clipPath id="clip0_347_279">
<rect width="144" height="148" fill="white"/>
</clipPath>
</defs>
</svg>
