<svg width="139" height="146" viewBox="0 0 139 146" fill="none" xmlns="http://www.w3.org/2000/svg">
<g clip-path="url(#clip0_343_112)">
<path d="M48.9887 138.03C53.8514 138.334 57.9229 136.033 61.0876 131.207C62.4509 129.126 63.6985 126.679 65.007 123.509C66.5893 119.662 67.7639 115.481 68.6951 110.369C70.9469 115.347 73.1865 120.338 75.4201 125.328C76.5764 127.915 77.9153 130.447 79.4064 132.85C80.6358 134.841 82.0781 136.776 83.8126 138.778C86.7887 142.217 90.8176 144.231 96.4958 145.12C101.018 145.832 104.974 143.148 106.811 138.115C108.26 134.177 108.856 130.142 108.601 126.113C108.15 119.102 106.647 112.067 104.14 105.196C104.042 104.934 103.939 104.672 103.842 104.417C103.823 104.38 103.811 104.338 103.793 104.301C103.829 104.313 103.866 104.332 103.908 104.344L104.219 104.466L106.325 105.269C107.919 105.871 109.508 106.48 111.096 107.101C113.098 107.88 115.49 108.75 118.083 109.286C120.992 109.894 123.463 110.259 126.074 110.065C127.601 109.955 129.104 109.56 130.553 108.89C132.829 107.837 134.478 106.036 135.458 103.528C135.458 103.516 135.464 103.504 135.47 103.492C136.59 100.583 136.821 97.5945 136.152 94.6063C135.543 91.898 134.466 89.3724 132.951 87.0962C129.518 81.9475 125.234 77.9551 120.207 75.2164C122.459 74.8573 124.662 74.3157 126.755 73.5975C128.605 72.9585 130.449 72.0761 132.22 70.9684C135.647 68.8322 137.838 65.6432 138.738 61.4926C139.542 57.768 138.465 54.512 135.781 52.5645C134.795 51.8524 133.748 51.3716 132.945 51.0369C128.569 49.205 123.913 48.1156 118.71 47.7018C114.845 47.3975 110.743 47.58 106.203 48.2738C108.735 45.6812 111.212 42.6017 114.06 38.5241L114.687 37.6356C115.788 36.0654 116.932 34.4404 117.955 32.7425C120.231 28.9813 119.811 24.8125 116.884 22.1225C116.677 21.9277 116.458 21.7512 116.233 21.5747C116.001 21.3861 115.782 21.2096 115.581 21.0209C113.36 18.8908 110.585 18.0083 107.323 18.4039C103.355 18.8847 99.91 19.7733 96.794 21.1122C95.9115 21.4895 95.0838 21.9399 94.3231 22.4389C91.7 24.1734 88.3223 26.5835 85.4741 29.8212C84.2204 31.2514 82.9789 32.7364 81.7617 34.197C81.2444 34.8178 80.727 35.4325 80.2097 36.0532C80.2097 36.0532 80.1976 36.0654 80.1915 36.0715C81.0313 32.6268 81.8712 28.6953 82.285 24.709C82.8024 19.6698 82.9484 15.8052 82.7598 12.178C82.5833 8.76985 81.6034 5.73296 79.7655 2.88473C78.39 0.754638 76.4121 -0.194772 73.8925 0.0669242C72.3467 0.225159 70.8252 0.815498 69.2428 1.86837C66.2607 3.85239 64.0515 6.56673 62.6822 9.93836L61.7814 12.1476C60.9355 14.2046 60.0652 16.3347 59.2436 18.4526C58.1055 21.4226 57.4056 24.5021 57.1744 27.6059C56.9005 31.2088 56.6266 34.9212 56.6996 38.5972C54.74 35.5055 52.8472 32.7181 50.9302 30.1072C48.6357 26.9791 46.1101 23.6744 43.2192 20.6618C38.7035 15.9574 33.3661 12.5188 27.3531 10.4374C24.4684 9.43931 21.8149 10.2244 19.4596 12.7805C18.5346 13.7847 17.859 14.8071 17.4026 15.9026C17.1835 16.4321 16.9644 16.9676 16.7453 17.4971C16.5201 18.0388 16.301 18.5865 16.0698 19.1282C16.015 19.256 15.9663 19.3777 15.9176 19.5055C14.9986 21.8973 14.7552 24.4777 15.1873 27.3868C15.6376 30.442 16.4167 33.0955 17.573 35.4994C19.2771 39.0414 21.3889 42.3461 23.8476 45.3222C27.1888 49.3632 30.603 53.1609 33.9868 56.5934C36.1047 58.7478 38.3626 60.7136 40.5414 62.6185L40.6753 62.7402C40.7423 62.801 40.8092 62.8619 40.8822 62.9167C38.886 62.9288 36.5003 63.3366 34.4798 63.6774C33.4452 63.8539 32.5445 64.0061 31.9663 64.0548C26.142 64.5477 21.3706 65.4606 16.9461 66.9334C12.4729 68.4245 0.0149803 74.0297 -3.86786 82.0023C-5.18852 84.7105 -5.37718 87.4249 -4.43386 90.0662C-3.56357 92.4945 -2.12119 94.3933 -0.143255 95.7139C1.2626 96.6512 2.82061 97.3267 4.62814 97.7649C10.0629 99.0856 15.2116 99.3047 20.3725 98.4344C20.7681 98.3674 21.1698 98.3126 21.5958 98.2518C22.1435 98.1727 22.7095 98.0936 23.2816 97.984C26.1846 97.4302 29.6049 96.6573 32.9705 95.0993C37.3219 93.0848 41.6551 90.7174 45.8605 88.0639C44.2721 91.2103 42.7932 94.4359 41.4847 97.2963C39.4277 101.794 37.7297 106.681 36.2995 112.25C34.7719 118.183 35.2162 123.928 37.6141 129.321C39.2755 133.057 41.6673 135.516 44.9172 136.837L45.4406 137.05C46.53 137.506 47.662 137.975 48.9766 138.054L48.9887 138.03ZM128.222 59.9285C128.435 60.0137 128.648 60.105 128.897 60.2145L129.257 60.3667C129.445 60.4458 129.549 60.5005 129.597 60.5371C129.567 60.6527 129.445 60.9266 129.257 61.2491C129.056 61.5839 128.721 61.7969 128.301 62.0586C127.437 62.5941 126.469 63.0323 125.173 63.4705C122.623 64.3286 119.817 64.8277 116.586 64.9798C112.496 65.1746 108.376 64.8581 104.383 64.5477H104.274C98.778 64.1156 93.8484 63.5435 89.2352 62.795C96.5506 59.5877 103.458 57.7923 110.311 57.3176C116.792 56.8672 122.818 57.7497 128.222 59.9285ZM92.0895 38.1164C94.0492 35.7733 96.4349 34.0083 98.9058 32.2617C99.6848 31.7139 100.513 31.3123 101.365 31.081C103.245 30.5637 105.095 30.089 106.866 29.6691C107.225 29.5839 107.633 29.5717 108.096 29.6204C108.242 29.6386 108.345 29.6569 108.412 29.6751C108.369 29.7786 108.284 29.9429 108.12 30.1742C106.477 32.566 105.022 34.6352 103.677 36.5097C100.939 40.3256 97.5182 43.4112 94.5361 45.9247C90.4889 49.3389 86.1131 52.5219 81.5365 55.3762C81.2991 55.5222 81.0618 55.6622 80.8244 55.8022C80.5932 55.9361 80.3619 56.0761 80.1306 56.216C79.8202 56.4047 79.6985 56.3256 79.6133 56.2769L79.4186 56.1734C79.1569 56.0456 78.8587 55.8996 78.6456 55.7839C78.7126 55.6866 78.7795 55.5831 78.8404 55.4979L78.8769 55.4431C78.9865 55.2849 79.1082 55.1084 79.2421 54.9015C80.4045 53.1426 81.7069 51.2195 83.3501 48.852C83.9404 47.9939 84.5795 47.154 85.2489 46.3385C87.2999 43.8493 89.5334 41.1594 92.0774 38.1164H92.0895ZM67.0701 37.806C66.9362 34.3005 67.1797 30.8923 67.5083 26.7965C67.6666 24.8429 68.2934 22.9501 68.8898 21.3617C69.1333 20.6983 69.3889 20.0411 69.6445 19.3838L70.1496 18.0692L70.247 17.771L70.6669 16.7912C71.1295 15.7018 71.5981 14.6185 72.0606 13.5291C72.2797 13.0179 72.5049 12.6223 72.7788 12.2936C72.9309 12.9935 72.9796 13.7603 73.01 14.655C73.1561 19.7976 72.7909 24.5568 71.8963 29.2065C71.0504 33.6067 70.0218 38.159 68.7499 43.119C68.5551 43.8737 68.3117 44.6405 67.9952 45.4621C67.4779 43.1251 67.1675 40.6055 67.0641 37.8121L67.0701 37.806ZM54.5635 55.9482C53.9914 55.5892 53.4132 55.2301 52.8351 54.8771C51.4596 54.0312 50.0416 53.1548 48.6966 52.2054C44.5399 49.278 40.5718 45.8638 36.7255 42.553C33.0009 39.3518 30.0857 35.8767 27.8157 31.9452C26.4342 29.5534 25.5578 27.2286 25.1318 24.8429C24.937 23.7535 25.1135 22.6641 25.6734 21.5017C25.8803 21.5747 26.0872 21.6599 26.2942 21.739L26.6289 21.8668C30.1101 23.4735 33.22 25.6219 35.8735 28.251C37.7723 30.1316 39.6285 32.2556 41.5517 34.7326C45.7875 40.1978 49.3417 45.2856 52.4212 50.2761C53.6993 52.3454 54.7461 54.2685 55.6224 56.143C55.6833 56.2708 55.7381 56.3986 55.7868 56.5264C55.3242 56.3986 54.9043 56.1613 54.5696 55.9543L54.5635 55.9482ZM76.9416 86.938C82.6015 91.1312 86.9652 95.8661 90.2942 101.416C93.5563 106.87 95.8324 113.071 97.2383 120.374C97.6339 122.425 98.1025 125.14 98.2303 127.957C98.3216 129.96 98.1146 131.743 97.5973 133.416C97.573 133.496 97.5426 133.575 97.5243 133.63C95.9846 133.064 94.7004 132.583 93.4041 132.011C92.6251 131.664 91.9739 130.909 91.3471 130.179L91.2801 130.1C88.9857 127.434 87.0199 124.257 85.2672 120.393C82.7658 114.885 80.2706 109.304 77.8605 103.906L76.4243 100.686C75.2801 98.1301 74.2638 95.5435 73.4056 93.0057C72.8275 91.3077 72.4258 89.5428 71.9998 87.6744C71.7381 86.5302 71.4703 85.3556 71.1477 84.1445C73.6552 84.9357 75.3775 85.7695 76.9477 86.9319L76.9416 86.938ZM66.7963 69.1C65.6643 68.3149 64.6236 67.3168 63.5159 65.9536C63.1447 65.4971 62.9804 65.0833 63.0351 64.7242C63.096 64.2921 63.4855 63.8296 64.1489 63.3792C64.581 63.0871 65.0861 62.9715 65.7373 63.008C66.2972 63.0445 66.8693 63.081 67.3318 63.2392C71.1051 64.5234 74.209 65.6675 76.9903 67.7185C78.7674 69.027 80.1184 70.4572 81.1348 72.0821L81.2322 72.2404C81.4026 72.5082 81.5608 72.7577 81.6765 73.0133C81.7495 73.1715 81.7677 73.3054 81.7312 73.4089C81.6886 73.5123 81.5547 73.6158 81.3661 73.6888C81.1287 73.7801 80.867 73.841 80.5932 73.8836C78.9317 74.127 77.5258 74.0357 76.2904 73.5915C75.5662 73.3358 74.848 73.0498 74.3003 72.8368L73.7525 72.6238C71.1477 71.717 69.0055 70.6337 66.7963 69.1061V69.1ZM105.71 92.744C101.17 90.8391 97.3783 88.5568 94.1101 85.7816L93.9701 85.666C92.0713 84.0532 90.1116 82.3796 87.8841 81.1198C87.732 81.0346 87.5738 80.919 87.4155 80.7972C88.7605 79.6531 89.7343 78.2776 90.3916 76.5918C90.422 76.5188 90.4463 76.4579 90.4646 76.4153C90.5194 76.4275 90.5741 76.4397 90.6107 76.4519C90.6959 76.4762 90.7811 76.5066 90.9089 76.5492C92.5034 77.0909 94.0979 77.6204 95.6924 78.1498L95.8263 78.1924C101.018 79.9148 106.392 81.6919 111.54 83.7733C115.581 85.4043 118.947 87.6987 121.826 90.8026C123.524 92.6344 124.796 94.5272 125.708 96.6025C126.061 97.3997 126.329 98.0936 126.293 98.8482C125.928 98.9517 125.544 98.9212 125.082 98.8786L124.82 98.8604C122.245 98.6778 119.598 98.0875 116.945 97.1076C113.238 95.7322 109.404 94.3081 105.704 92.7562L105.71 92.744ZM32.1671 83.9498C29.5928 85.2461 27.2801 86.1103 25.077 86.585C22.6243 87.1145 19.7152 87.6926 16.727 87.9178C13.6354 88.1552 10.5011 87.8204 7.41551 86.9319C6.57565 86.6885 6.30787 86.5059 6.22266 86.4328C6.26527 86.3355 6.41741 86.0616 6.99558 85.5808C19.3805 75.2955 34.0233 74.4678 46.9621 74.7234C46.8404 74.833 46.7065 74.9425 46.5665 75.0582L46.5057 75.113C44.8077 76.5249 42.9575 77.8395 40.8579 79.1358C38.3079 80.7059 35.4657 82.2822 32.161 83.9498H32.1671ZM46.9925 123.788C45.9214 121.05 45.6415 118.372 46.1405 115.603C46.4265 114.027 46.9134 112.444 47.3881 110.905L47.6498 110.04C48.5627 107.04 49.7495 103.954 51.271 100.601C53.328 96.0791 55.5738 91.6789 58.0873 86.8041L58.142 86.6945C58.4463 88.8672 58.8358 91.0156 59.2132 93.1031L59.4627 94.4846C59.8278 96.5234 59.9556 98.5865 59.84 100.607C59.5114 106.565 58.568 111.83 56.9553 116.711C56.0424 119.48 54.7826 122.06 53.1698 125.085C52.8838 125.62 52.4699 126.083 51.8674 126.545C51.3257 126.959 50.8389 127.057 50.2911 126.856C48.5931 126.235 47.5707 125.286 46.9804 123.782L46.9925 123.788Z" fill="#E8DFCC"/>
</g>
<defs>
<clipPath id="clip0_343_112">
<rect width="144" height="145.229" fill="white" transform="translate(-5)"/>
</clipPath>
</defs>
</svg>
