<svg width="16" height="20" viewBox="0 0 16 20" fill="none" xmlns="http://www.w3.org/2000/svg">
<path d="M7.3 0.259997L1.3 2.51C0.52 2.81 0 3.55 0 4.39V9.1C0 14.15 3.41 18.86 8 20.01C12.59 18.86 16 14.15 16 9.1V4.39C15.9993 3.98306 15.8745 3.58602 15.6422 3.25188C15.4099 2.91775 15.0812 2.66243 14.7 2.52L8.7 0.269997C8.25 0.0899972 7.75 0.0899972 7.3 0.259997ZM6.23 12.83L4.11 10.71C4.01742 10.6174 3.94398 10.5075 3.89387 10.3865C3.84377 10.2656 3.81798 10.1359 3.81798 10.005C3.81798 9.87407 3.84377 9.74442 3.89387 9.62345C3.94398 9.50249 4.01742 9.39258 4.11 9.3C4.20258 9.20742 4.31249 9.13398 4.43346 9.08387C4.55442 9.03376 4.68407 9.00798 4.815 9.00798C4.94593 9.00798 5.07558 9.03376 5.19654 9.08387C5.31751 9.13398 5.42742 9.20742 5.52 9.3L6.93 10.71L10.47 7.17C10.5626 7.07742 10.6725 7.00397 10.7935 6.95387C10.9144 6.90376 11.0441 6.87798 11.175 6.87798C11.3059 6.87798 11.4356 6.90376 11.5565 6.95387C11.6775 7.00397 11.7874 7.07742 11.88 7.17C11.9726 7.26258 12.046 7.37249 12.0961 7.49345C12.1462 7.61442 12.172 7.74407 12.172 7.875C12.172 8.00593 12.1462 8.13558 12.0961 8.25654C12.046 8.3775 11.9726 8.48742 11.88 8.58L7.64 12.82C7.26 13.22 6.62 13.22 6.23 12.83Z" fill="#AD0000"/>
</svg>
