<svg width="24" height="24" viewBox="0 0 24 24" fill="none" xmlns="http://www.w3.org/2000/svg">
<path d="M21.6333 0.750017H2.4333C2.21864 0.749024 2.00591 0.790572 1.80739 0.872261C1.60888 0.953951 1.42852 1.07416 1.27673 1.22595C1.12494 1.37774 1.00473 1.5581 0.923043 1.75661C0.841354 1.95513 0.799806 2.16786 0.800799 2.38252V21.6175C0.800799 22.4875 1.5258 23.25 2.4333 23.25H21.5583C21.7731 23.2512 21.9859 23.2097 22.1846 23.1281C22.3832 23.0465 22.5638 22.9263 22.7157 22.7745C22.8676 22.6227 22.9879 22.4423 23.0697 22.2437C23.1515 22.0451 23.193 21.8323 23.1921 21.6175V2.34627C23.2658 1.47627 22.5396 0.750017 21.6333 0.750017ZM7.44205 19.875H4.1408V9.16877H7.4433L7.44205 19.875ZM5.7733 7.68127C5.52036 7.68259 5.26966 7.63373 5.03573 7.53751C4.8018 7.44129 4.58929 7.29961 4.41048 7.1207C4.23168 6.94178 4.09015 6.72917 3.99408 6.49518C3.89801 6.26118 3.84931 6.01046 3.8508 5.75752C3.8508 4.70627 4.7208 3.83502 5.7733 3.83502C6.8258 3.83502 7.6983 4.70627 7.6983 5.75752C7.6983 6.80877 6.8983 7.68127 5.7733 7.68127ZM19.9633 19.875H16.6608V14.685C16.6608 13.4513 16.6245 11.8188 14.9195 11.8188C13.177 11.8188 12.9233 13.1975 12.9233 14.5763V19.875H9.6208V9.16877H12.8508V10.6563H12.887C13.3583 9.78627 14.412 8.91502 16.0445 8.91502C19.4195 8.91502 20.0358 11.0925 20.0358 14.0688V19.875H19.9633Z" fill="black"/>
</svg>
