<svg width="46" height="58" viewBox="0 0 46 58" fill="none" xmlns="http://www.w3.org/2000/svg">
<path d="M44.5444 10.5575C43.6489 7.64531 41.2107 5.70847 37.757 6.29203C35.7539 6.63104 33.9796 7.44524 32.3755 8.6568C30.4422 10.1185 28.8465 11.8997 27.4488 13.8643C26.2548 15.5455 25.1863 17.3073 24.2629 19.1552C24.1904 19.2997 24.0872 19.4275 23.8556 19.7832C23.7301 19.3497 23.6687 19.158 23.6185 18.9634C23.1247 17.0961 22.6002 15.237 21.9279 13.4225C20.9794 10.8576 19.9137 8.34835 18.463 6.01414C17.4336 4.35797 16.1922 2.89631 14.6327 1.69586C11.1734 -0.971809 6.65679 0.0785853 4.34409 2.43225C2.87389 3.93003 1.76636 5.64734 1.13866 7.65087C0.483072 9.75444 0.248733 11.9191 0.315687 14.1172C0.371482 16.0096 0.569555 17.888 0.817843 19.7637C1.5097 25.0074 3.02733 30.012 5.17823 34.8388C6.86045 38.6097 8.90254 42.1805 11.1148 45.6596C12.3339 47.5742 13.5921 49.4638 14.9786 51.2672C16.0304 52.6372 17.1407 53.9543 18.3514 55.1881C18.915 55.7606 19.5008 56.3108 20.2234 56.6748C21.4453 57.2945 22.6477 57.3056 23.8054 56.4942C24.0453 56.3275 24.2852 56.1413 24.5558 56.044C25.2617 55.7884 25.775 55.3132 26.213 54.7324C26.9969 53.6904 27.792 52.6566 28.5675 51.609C31.4437 47.7131 34.1442 43.7033 36.5378 39.4961C39.1211 34.9556 41.2748 30.2121 43.0519 25.3047C43.8944 22.9761 44.6309 20.6113 45.0661 18.1604C45.5236 15.5788 45.3088 13.0501 44.5444 10.5659V10.5575ZM39.3471 17.549C38.9091 19.6109 38.2731 21.6061 37.5645 23.5846C34.5041 32.1212 30.0321 39.8963 24.687 47.199C23.9923 48.1494 23.2837 49.0914 22.5751 50.0334C22.3743 50.3002 22.1511 50.5475 21.8498 50.906C20.9822 50.0029 20.3238 49.1303 19.6905 48.2494C16.128 43.2865 12.9282 38.1095 10.4062 32.5352C8.00982 27.236 6.62611 21.6811 6.15464 15.8928C6.00957 14.1255 5.99004 12.3721 6.29971 10.6214C6.5452 9.22924 7.08363 7.96765 8.02098 6.88947C8.35575 6.506 8.71842 6.16976 9.22337 6.00025C9.91244 5.76683 10.5429 5.81685 11.1427 6.25034C12.0438 6.90337 12.7385 7.74257 13.3466 8.65958C14.3286 10.1379 15.0818 11.733 15.757 13.3641C16.9287 16.2069 17.8242 19.1357 18.463 22.1424C19.0907 25.1019 19.7017 28.0641 20.3405 31.0207C20.5442 31.9628 20.7729 32.9048 21.1523 33.7996C21.5541 34.7527 22.2348 35.3835 23.2586 35.6225C24.8767 36.0004 26.4696 34.9528 26.7179 33.3244C26.7876 32.8714 26.7849 32.4018 26.7681 31.9405C26.6928 29.6869 27.0694 27.5083 27.831 25.3909C28.9469 22.2841 30.4924 19.4025 32.4481 16.7432C33.4496 15.3843 34.5878 14.145 35.9576 13.1363C36.6411 12.6305 37.3803 12.2359 38.2201 12.0497C38.8505 11.9108 39.0542 12.0192 39.1909 12.6805C39.5257 14.2922 39.7042 15.904 39.3527 17.5518L39.3471 17.549Z" fill="#FDC182"/>
</svg>
