<svg width="271" height="45" viewBox="0 0 271 45" fill="none" xmlns="http://www.w3.org/2000/svg">
<g clip-path="url(#clip0_1_649)">
<path d="M1.31952 38.4254C2.40994 39.2248 3.64761 39.3444 4.81436 38.6973C6.03021 38.023 7.20785 37.2453 8.30374 36.3861C15.7078 30.5891 23.4935 25.3686 31.7372 20.8387C31.9825 21.3553 31.6281 21.7142 31.3174 22.0622C29.6217 23.9601 27.9043 25.8471 26.2087 27.745C25.0583 29.0338 23.9406 30.3499 23.0464 31.8344C22.3104 33.0526 21.836 34.3468 21.8251 35.7825C21.8033 38.3112 23.6407 40.3613 26.1705 40.5952C27.1683 40.6876 28.1496 40.5625 29.0765 40.171C30.3632 39.6272 31.6718 39.1215 32.9148 38.4906C36.8786 36.484 40.815 34.4284 44.757 32.3891C45.5257 31.9922 46.2508 31.4701 47.1668 31.4755C45.4221 33.0145 43.6719 34.5535 41.9327 36.0979C41.1912 36.7559 40.5424 37.4955 40.079 38.3819C39.5229 39.4532 39.3975 40.5517 39.7846 41.7154C40.6297 44.255 43.1104 45.5493 45.6838 44.7662C46.8124 44.4236 47.7447 43.7384 48.7098 43.1184C58.2729 36.9517 68.2013 31.4483 78.5604 26.7281C81.7772 25.2598 85.0648 23.9438 88.3361 22.5843C88.805 22.3885 89.3284 21.9752 89.8791 22.4647C89.8191 23.1335 89.3502 23.5251 88.9958 23.9601C86.7659 26.7064 84.5032 29.4199 82.2624 32.1607C81.0629 33.6236 79.8798 35.0973 78.7185 36.5928C78.0533 37.4465 77.6335 38.4363 77.4809 39.513C77.0556 42.5529 79.3673 45.0272 82.4423 44.8423C83.2874 44.7934 84.0671 44.5486 84.7813 44.1245C85.5555 43.6622 86.3079 43.1456 87.0494 42.6344C95.244 36.968 103.499 31.394 112.042 26.2659C113.738 25.2489 115.466 24.2918 117.167 23.2858C117.647 23.003 118.11 22.878 118.617 23.0465C118.623 23.0628 118.639 23.0846 118.656 23.1009C118.247 23.2586 117.98 23.623 117.669 23.9112C113.732 27.5493 109.709 31.0677 104.992 33.7051C104.284 34.1021 103.613 34.6351 103.062 35.2278C102.021 36.3589 101.443 37.7021 101.727 39.29C102.217 42.0852 104.813 43.7819 107.604 43.1456C109.005 42.8248 110.188 42.0689 111.317 41.2369C113.378 39.7196 115.581 38.4363 117.827 37.2127C124.631 33.5039 131.605 30.1378 138.676 26.9837C143.338 24.9064 148.065 22.965 152.77 20.9855C153.495 20.681 154.226 20.2568 155.071 20.545C152.475 22.6278 149.869 24.6997 147.296 26.8042C146.342 27.5873 145.442 28.4411 144.788 29.507C143.659 31.345 143.556 33.2483 144.63 35.1136C145.682 36.9408 147.394 37.5988 149.439 37.5118C150.605 37.4629 151.707 37.1311 152.808 36.7831C157.442 35.3257 162.017 33.6943 166.542 31.9378C171.607 29.9746 176.645 27.9408 181.705 25.9613C182.272 25.7384 182.833 25.2435 183.553 25.6731C183.58 26.1625 183.575 26.6574 183.629 27.1414C184.011 30.3662 186.933 32.3456 190.063 31.4592C190.842 31.2363 191.595 30.861 192.314 30.4695C201.948 25.2272 212.073 21.0671 222.203 16.9015C222.65 16.7166 223.086 16.4882 223.588 16.6894C223.583 17.2713 223.097 17.4888 222.721 17.7607C220.922 19.0604 219.123 20.371 217.285 21.6218C214.079 23.797 210.819 25.8635 207.242 27.4133C205.274 28.2616 203.404 29.3112 201.605 30.4858C200.847 30.9807 200.1 31.4973 199.511 32.1988C196.976 35.1952 198.475 39.687 202.303 40.5462C203.535 40.8236 204.751 40.7474 205.961 40.3668C207.226 39.9644 208.409 39.3879 209.538 38.7082C211.163 37.7348 212.782 36.745 214.385 35.7444C215.786 34.8689 217.242 34.113 218.79 33.5203C222.329 32.1607 225.84 30.736 229.395 29.4308C238.205 26.1897 247.049 23.0357 255.854 19.7728C259.949 18.2556 263.978 16.5698 267.767 14.3674C268.552 13.9106 269.348 13.4701 269.953 12.7795C271.96 10.5009 270.869 7.55348 268.699 6.56375C267.691 6.10696 266.611 6.09608 265.553 6.40605C264.763 6.63445 263.989 6.92267 263.225 7.2272C256.803 9.81572 250.2 11.8822 243.636 14.0737C243.232 14.2097 242.769 14.6338 242.256 14.0683C243.194 12.8393 244.17 11.6212 245.07 10.3541C246.035 8.99457 246.7 7.50998 246.743 5.79699C246.825 2.83868 244.944 0.538374 242.022 0.114205C240.795 -0.0652517 239.563 -0.0543756 238.331 0.146833C235.959 0.532936 233.675 1.22901 231.445 2.08278C228.212 3.31723 225.006 4.61149 221.783 5.87312C221.26 6.07976 220.769 6.4278 220.115 6.29729C219.995 6.11239 219.842 5.92206 219.739 5.70454C218.512 3.19759 216.418 2.41994 213.791 2.76798C212.313 2.96375 210.906 3.45862 209.527 4.0133C206.621 5.17704 203.737 6.39517 200.842 7.57523C191.535 11.3656 182.233 15.1559 172.916 18.9245C172.359 19.1474 171.809 19.6749 171.051 19.229C171.585 18.5601 172.131 17.9456 172.599 17.2713C173.21 16.4012 173.87 15.5366 174.322 14.5795C175.898 11.2568 174.224 7.45559 170.375 6.94985C169.966 6.89547 169.557 6.80846 169.148 6.80846C167.747 6.80303 166.351 6.82478 164.955 7.02055C162.077 7.42296 159.356 8.36919 156.635 9.33173C149.564 11.8332 142.667 14.7644 135.814 17.7988C135.323 18.0163 134.87 18.4731 134.2 18.1142C134.314 17.2332 134.489 16.3468 134.538 15.4496C134.652 13.1438 133.453 11.2949 131.321 10.403C130.078 9.88097 128.775 9.73958 127.445 9.83203C125.046 9.99517 122.717 10.4683 120.471 11.3492C117.702 12.4369 115.057 13.7692 112.484 15.2538C109.272 17.1082 106.094 19.0115 102.904 20.8931C102.463 21.1541 102.054 21.513 101.416 21.4641C101.498 21.0616 101.547 20.8224 101.596 20.5831C101.71 20.023 101.868 19.4628 101.928 18.8918C102.283 15.5583 100.467 13.0568 97.1795 12.4967C94.4807 12.0399 91.7655 12.0399 89.0776 12.6924C86.9894 13.1982 84.9612 13.8779 82.9767 14.6882C78.9366 16.3414 74.9511 18.1142 71.0146 20.0066C70.5348 20.235 70.0768 20.719 69.4389 20.4308C69.2045 19.9142 69.5916 19.4955 69.6406 19.0224C69.9787 15.89 68.0214 13.5408 64.8809 13.3559C63.4579 13.2743 62.0785 13.5462 60.77 14.0628C59.3906 14.6012 58.0221 15.1885 56.7081 15.8628C52.161 18.1903 47.6466 20.5722 43.1049 22.9051C42.7505 23.0846 42.3853 23.6447 41.84 23.0846C42.8323 21.6598 43.8355 20.2568 44.806 18.832C45.5039 17.8097 46.0818 16.7112 46.4526 15.5311C47.3249 12.7305 46.0437 10.2181 43.2849 9.20121C42.1726 8.79335 41.0277 8.73897 39.8718 8.8423C37.8927 9.01631 35.9735 9.44592 34.1252 10.2018C31.759 11.1752 29.4909 12.3444 27.25 13.5625C19.9278 17.5432 12.9708 22.0949 6.11197 26.8042C5.09787 27.5003 4.14374 28.2943 3.21142 29.1045C1.30316 30.7523 0.594389 33.0363 0.0818771 35.3746C-0.185274 36.5928 0.321776 37.6586 1.33044 38.3982L1.31952 38.4254ZM223.959 16.3468C224.013 16.3468 224.117 16.4719 224.106 16.4937C224.002 16.7057 223.855 16.8471 223.61 16.6949C223.506 16.3795 223.719 16.336 223.959 16.3468ZM155.163 20.4798C155.163 20.4798 155.125 20.5124 155.103 20.5233C155.103 20.5233 155.103 20.5124 155.098 20.507C155.12 20.4961 155.136 20.4906 155.163 20.4743L155.163 20.4798ZM118.781 22.965C118.841 22.9432 118.934 22.9704 118.781 22.965V22.965ZM118.836 23.052C118.836 23.052 118.792 23.0628 118.77 23.0737C118.786 23.0683 118.808 23.0574 118.836 23.0574L118.836 23.052ZM118.716 23.1662C118.743 23.2205 118.803 23.2477 118.716 23.1662V23.1662ZM47.2322 31.4212C47.2322 31.4212 47.2322 31.4103 47.2268 31.4103C47.2431 31.3994 47.2595 31.3994 47.2867 31.3776C47.2704 31.394 47.254 31.4103 47.2377 31.4212L47.2322 31.4212ZM47.2104 31.3287C47.2322 31.2526 47.3467 31.2743 47.2104 31.3287V31.3287ZM31.9825 20.8387C31.9607 20.9637 31.8844 20.9583 31.759 20.8278C31.8353 20.8278 31.9062 20.8332 31.9825 20.8387Z" fill="#E8DFCC"/>
</g>
<defs>
<clipPath id="clip0_1_649">
<rect width="45" height="271" fill="white" transform="translate(271) rotate(90)"/>
</clipPath>
</defs>
</svg>
