<svg width="262" height="262" viewBox="0 0 262 262" fill="none" xmlns="http://www.w3.org/2000/svg">
<g clip-path="url(#clip0_386_179)">
<path d="M110.542 199.432C110.591 198.152 110.676 197.558 110.627 196.971C108.654 172.173 109.778 147.417 111.574 122.669C113.674 93.6984 117.231 64.8979 121.085 36.1258C122.011 29.2315 123.425 22.415 125.059 15.6621C125.518 13.76 126.183 11.9074 126.841 10.0618C127.569 8.00412 128.99 6.41313 130.68 5.10499C133.311 3.06852 136.231 2.72203 139.194 4.19989C141.994 5.59995 143.387 8.02535 143.493 11.1578C143.521 11.9074 143.387 12.664 143.316 13.4135C140.495 39.8664 137.638 66.3263 134.852 92.7862C132.625 113.992 131.105 135.255 130.32 156.56C129.676 174.118 130.61 191.626 132.236 209.105C132.321 210.01 132.427 210.908 132.575 211.806C132.625 212.082 132.83 212.33 132.978 212.62C133.954 212.803 134.159 211.948 134.492 211.389C139.243 203.314 143.953 195.225 148.704 187.15C151.073 183.112 153.477 179.096 155.896 175.079C158.703 170.419 161.383 165.689 163.914 160.881C165.951 157.006 168.093 153.166 170.512 149.517C174.365 143.726 182.405 143.465 186.832 148.824C188.896 151.313 189.561 154.213 188.84 157.324C188.507 158.773 187.913 160.216 187.199 161.524C183.628 168.008 180.058 174.492 176.331 180.878C168.645 194.051 160.853 207.175 153.103 220.313C150.253 225.128 147.658 230.071 145.395 235.19C144.228 237.814 142.97 240.402 141.591 242.912C140.658 244.623 139.554 246.292 138.289 247.77C137.193 249.05 136.231 250.337 135.581 251.892C133.091 257.79 124.578 260.01 119.176 254.791C115.683 251.411 112.614 247.735 110.188 243.485C99.9282 225.489 90.4883 207.083 81.7768 188.302C76.9472 177.887 72.3581 167.358 67.6912 156.864C67.0124 155.351 66.3477 153.795 65.9517 152.197C64.7143 147.184 67.2104 142.241 71.8419 140.24C76.3886 138.281 81.7768 139.993 84.4991 144.37C85.2911 145.642 85.8355 147.078 86.4366 148.457C93.239 164.112 100.183 179.711 107.805 194.999C108.463 196.321 108.873 197.806 110.542 199.432Z" fill="#E8DFCC"/>
</g>
<defs>
<clipPath id="clip0_386_179">
<rect width="178.74" height="191.79" fill="white" transform="translate(126.389 262.004) rotate(-135)"/>
</clipPath>
</defs>
</svg>
