<svg width="332" height="204" viewBox="0 0 332 204" fill="none" xmlns="http://www.w3.org/2000/svg">
<path d="M323.31 24.29C323.31 29.04 327.15 32.9 331.9 32.92V41.47C327.15 41.49 323.31 45.35 323.31 50.1C323.31 54.85 327.15 58.71 331.9 58.73V67.27C313.15 67.51 298.04 82.77 298.04 101.57C298.04 120.37 311.74 134.16 329.22 135.73C330.06 136.01 330.97 136.17 331.91 136.17V144.78C327.59 145.25 324.22 148.91 324.22 153.36C324.22 157.81 327.59 161.47 331.91 161.94V170.54C327.16 170.56 323.32 174.42 323.32 179.17C323.32 183.92 327.16 187.78 331.91 187.8V196.35C327.78 196.37 324.33 199.29 323.51 203.18H8.04C7.24 199.4 3.97 196.54 0 196.36V187.78C4.58 187.57 8.23 183.79 8.23 179.16C8.23 174.53 4.58 170.75 0 170.54V161.96C0.16 161.97 0.33 161.98 0.5 161.98C5.27 161.98 9.13 158.11 9.13 153.35C9.13 148.59 5.27 144.72 0.5 144.72C0.33 144.72 0.17 144.72 0 144.74V136.16C0.72 136.13 1.42 136.01 2.08 135.81C20.06 134.74 34.3 119.82 34.3 101.57C34.3 83.32 18.95 67.26 0 67.26V58.72C4.58 58.51 8.23 54.73 8.23 50.1C8.23 45.47 4.58 41.69 0 41.48V32.9C4.58 32.69 8.23 28.91 8.23 24.28C8.23 19.65 4.58 15.88 0 15.67V7.09C0.16 7.1 0.33 7.11 0.5 7.11C4.75 7.11 8.28 4.05 9 0H324.35C325.01 3.74 328.08 6.64 331.9 7.05V15.66C327.15 15.68 323.31 19.54 323.31 24.29Z" fill="white"/>
</svg>
